<?xml version="1.0" encoding="UTF-8"?>
<svg width="20px" height="20px" viewBox="0 0 20 20" version="1.1" xmlns="http://www.w3.org/2000/svg" xmlns:xlink="http://www.w3.org/1999/xlink">
    <!-- Generator: Sketch 41 (35326) - http://www.bohemiancoding.com/sketch -->
    <title>cancel</title>
    <desc>Created with Sketch.</desc>
    <defs></defs>
    <g id="Diseños-finales" stroke="none" stroke-width="1" fill="none" fill-rule="evenodd">
        <g id="12-formulario-select" transform="translate(-500.000000, -15.000000)" fill="#8994A0">
            <g id="cancel" transform="translate(500.000000, 15.000000)">
                <path d="M0.273504274,19.7264957 C0.41025641,19.8632479 0.581196581,19.9316239 0.769230769,19.9316239 C0.957264957,19.9316239 1.12820513,19.8632479 1.26495726,19.7264957 L10,10.991453 L18.7350427,19.7264957 C18.8717949,19.8632479 19.042735,19.9316239 19.2307692,19.9316239 C19.4017094,19.9316239 19.5897436,19.8632479 19.7264957,19.7264957 C20,19.4529915 20,19.008547 19.7264957,18.7350427 L10.991453,10 L19.7264957,1.26495726 C20,0.991452991 20,0.547008547 19.7264957,0.273504274 C19.4529915,-8.55288063e-14 19.008547,-8.55288063e-14 18.7350427,0.273504274 L10,9.00854701 L1.26495726,0.273504274 C0.991452991,-8.52373727e-14 0.547008547,-8.52373727e-14 0.273504274,0.273504274 C-8.55010507e-14,0.547008547 -8.55010507e-14,0.991452991 0.273504274,1.26495726 L9.00854701,10 L0.273504274,18.7350427 C-8.55010507e-14,19.008547 -8.55010507e-14,19.4529915 0.273504274,19.7264957 L0.273504274,19.7264957 Z" id="Shape"></path>
            </g>
        </g>
    </g>
</svg>