<?xml version="1.0" encoding="UTF-8"?>
<svg width="35px" height="34px" viewBox="0 0 35 34" version="1.1" xmlns="http://www.w3.org/2000/svg" xmlns:xlink="http://www.w3.org/1999/xlink">
    <!-- Generator: Sketch 41 (35326) - http://www.bohemiancoding.com/sketch -->
    <title>car-5</title>
    <desc>Created with Sketch.</desc>
    <defs></defs>
    <g id="Diseños-finales" stroke="none" stroke-width="1" fill="none" fill-rule="evenodd">
        <g id="07-vender-E" transform="translate(-694.000000, -293.000000)" fill="#8994A0">
            <g id="fotos-card" transform="translate(185.000000, 199.000000)">
                <g id="image-5" transform="translate(480.500000, 85.000000)">
                    <g id="car-5" transform="translate(29.000000, 9.000000)">
                        <g id="Layer_1">
                            <g id="Group">
                                <path d="M31.1776554,8.75155405 L20.0439189,8.75155405 C21.1614392,7.84848649 21.879,6.4685 21.879,4.92276351 L21.879,2.73493243 C21.879,1.22687162 20.6521284,0 19.1440676,0 L14.7682905,0 C13.2602297,0 12.0333581,1.22687162 12.0333581,2.73493243 L12.0333581,4.92287838 C12.0333581,6.46861486 12.7510338,7.84860135 13.8684392,8.75166892 L2.73493243,8.75166892 C1.22687162,8.75155405 0,9.97842568 0,11.4864865 L0,31.1776554 C0,32.6857162 1.22687162,33.9125878 2.73493243,33.9125878 L31.1776554,33.9125878 C32.6857162,33.9125878 33.9125878,32.6857162 33.9125878,31.1776554 L33.9125878,11.4864865 C33.912473,9.97842568 32.6856014,8.75155405 31.1776554,8.75155405 Z M13.1274459,4.92276351 L13.1274459,4.90852027 C13.5857568,5.25587162 14.1503176,5.46975 14.7684054,5.46975 L18.0502095,5.46975 L18.0502095,4.37577703 L14.7684054,4.37577703 C13.8637297,4.37577703 13.1274459,3.63949324 13.1274459,2.73481757 C13.1274459,1.83014189 13.8637297,1.09385811 14.7684054,1.09385811 L19.1441824,1.09385811 C20.0488581,1.09385811 20.7851419,1.83014189 20.7851419,2.73481757 C20.7851419,3.63949324 20.0488581,4.37577703 19.1441824,4.37577703 L19.1441824,5.46975 C19.7622703,5.46975 20.3267162,5.25587162 20.7851419,4.90852027 L20.7851419,4.92276351 C20.7851419,7.03352027 19.0671081,8.75155405 16.9563514,8.75155405 C14.8455946,8.75155405 13.1274459,7.03352027 13.1274459,4.92276351 Z M18.5971959,22.972973 L18.5971959,27.34875 C18.5971959,28.2534257 17.8609122,28.9897095 16.9562365,28.9897095 C16.0515608,28.9897095 15.315277,28.2534257 15.315277,27.34875 L15.315277,22.972973 L9.84552703,22.972973 L9.84552703,27.34875 C9.84552703,28.2534257 9.10924324,28.9897095 8.20456757,28.9897095 C7.29989189,28.9897095 6.56360811,28.2534257 6.56360811,27.34875 L6.56360811,15.315277 C6.56360811,14.4106014 7.29989189,13.6743176 8.20456757,13.6743176 C9.10924324,13.6743176 9.84552703,14.4106014 9.84552703,15.315277 L9.84552703,19.6910541 L14.2213041,19.6910541 L14.2213041,20.785027 C14.2213041,22.2930878 15.4481757,23.5199595 16.9562365,23.5199595 C18.4642973,23.5199595 19.6911689,22.2930878 19.6911689,20.785027 L19.6911689,19.6910541 L24.0669459,19.6910541 L24.0669459,15.315277 C24.0669459,14.4106014 24.8032297,13.6743176 25.7079054,13.6743176 C26.6125811,13.6743176 27.3488649,14.4106014 27.3488649,15.315277 L27.3488649,27.34875 C27.3488649,28.2534257 26.6125811,28.9897095 25.7079054,28.9897095 C24.8032297,28.9897095 24.0669459,28.2534257 24.0669459,27.34875 L24.0669459,22.972973 L18.5971959,22.972973 Z M15.315277,20.785027 L15.315277,9.55836486 C15.8294122,9.741 16.3801892,9.84552703 16.9562365,9.84552703 C17.5321689,9.84552703 18.0830608,9.741 18.5971959,9.55836486 L18.5971959,20.785027 C18.5971959,21.6897027 17.8609122,22.4259865 16.9562365,22.4259865 C16.0515608,22.4259865 15.315277,21.6897027 15.315277,20.785027 Z M32.8186149,31.1776554 L32.8185,31.1776554 C32.8185,32.0823311 32.0822162,32.8186149 31.1775405,32.8186149 L2.73493243,32.8186149 C1.83025676,32.8186149 1.09397297,32.0823311 1.09397297,31.1776554 L1.09397297,11.4864865 C1.09397297,10.5818108 1.83025676,9.84552703 2.73493243,9.84552703 L14.2214189,9.84552703 L14.2214189,18.5970811 L10.9395,18.5970811 L10.9395,15.315277 C10.9395,13.8072162 9.71262838,12.5803446 8.20456757,12.5803446 C6.69650676,12.5803446 5.46963514,13.8072162 5.46963514,15.315277 L5.46963514,27.34875 C5.46963514,28.8568108 6.69650676,30.0836824 8.20456757,30.0836824 C9.71262838,30.0836824 10.9395,28.8568108 10.9395,27.34875 L10.9395,24.0669459 L14.2213041,24.0669459 L14.2213041,27.34875 C14.2213041,28.8568108 15.4481757,30.0836824 16.9562365,30.0836824 C18.4642973,30.0836824 19.6911689,28.8568108 19.6911689,27.34875 L19.6911689,24.0669459 L22.972973,24.0669459 L22.972973,27.34875 C22.972973,28.8568108 24.1998446,30.0836824 25.7079054,30.0836824 C27.2159662,30.0836824 28.4428378,28.8568108 28.4428378,27.34875 L28.4428378,15.315277 C28.4428378,13.8072162 27.2159662,12.5803446 25.7079054,12.5803446 C24.1998446,12.5803446 22.972973,13.8073311 22.972973,15.315277 L22.972973,18.5970811 L19.6911689,18.5970811 L19.6911689,9.84552703 L31.1776554,9.84552703 C32.0823311,9.84552703 32.8186149,10.5818108 32.8186149,11.4864865 L32.8186149,31.1776554 Z" id="Shape"></path>
                                <rect id="Rectangle-path" x="3.82879054" y="6.01673649" width="6.56372297" height="1.09397297"></rect>
                                <rect id="Rectangle-path" x="8.20468243" y="3.82879054" width="2.18794595" height="1.09397297"></rect>
                                <rect id="Rectangle-path" x="25.7079054" y="6.56372297" width="5.46975" height="1.09397297"></rect>
                                <rect id="Rectangle-path" x="24.0669459" y="4.37577703" width="3.82879054" height="1.09397297"></rect>
                                <rect id="Rectangle-path" x="30.6306689" y="30.6306689" width="1.09397297" height="1.09397297"></rect>
                                <rect id="Rectangle-path" x="28.442723" y="30.6306689" width="1.09397297" height="1.09397297"></rect>
                                <rect id="Rectangle-path" x="2.18794595" y="30.6306689" width="1.09397297" height="1.09397297"></rect>
                                <rect id="Rectangle-path" x="6.01673649" y="3.82879054" width="1.09397297" height="1.09397297"></rect>
                            </g>
                        </g>
                    </g>
                </g>
            </g>
        </g>
    </g>
</svg>