<?xml version="1.0" encoding="UTF-8"?>
<svg width="37px" height="36px" viewBox="0 0 37 36" version="1.1" xmlns="http://www.w3.org/2000/svg" xmlns:xlink="http://www.w3.org/1999/xlink">
    <!-- Generator: Sketch 41 (35326) - http://www.bohemiancoding.com/sketch -->
    <title>car-4</title>
    <desc>Created with Sketch.</desc>
    <defs></defs>
    <g id="Diseños-finales" stroke="none" stroke-width="1" fill="none" fill-rule="evenodd">
        <g id="07-vender-E" transform="translate(-580.000000, -292.000000)" fill="#8994A0">
            <g id="fotos-card" transform="translate(185.000000, 199.000000)">
                <g id="image-4" transform="translate(367.875000, 85.000000)">
                    <g id="car-4" transform="translate(28.000000, 8.000000)">
                        <g id="Layer_1">
                            <g id="Group">
                                <path d="M17.9536622,0 C8.05366216,0 0,8.05427027 0,17.9536622 C0,27.8530541 8.05366216,35.9073243 17.9536622,35.9073243 C27.8536622,35.9073243 35.9073243,27.8530541 35.9073243,17.9536622 C35.9073243,8.05427027 27.8536622,0 17.9536622,0 Z M17.9536622,34.749 C8.69302703,34.749 1.15832432,27.2147838 1.15832432,17.9536622 C1.15832432,8.69254054 8.69302703,1.15832432 17.9536622,1.15832432 C27.2142973,1.15832432 34.749,8.69254054 34.749,17.9536622 C34.749,27.2147838 27.2142973,34.749 17.9536622,34.749 Z" id="Shape"></path>
                                <path d="M31.0986486,15.804973 L31.1009595,15.8026622 C31.0997432,15.8014459 31.0992568,15.8009595 31.0980405,15.7997432 C30.0648649,9.47602703 24.5652568,4.63317568 17.9536622,4.63317568 C11.3420676,4.63317568 5.84245946,9.47602703 4.80989189,15.7998649 C4.80867568,15.8010811 4.80818919,15.8015676 4.80697297,15.8027838 L4.80928378,15.8050946 C4.6952027,16.5046622 4.63317568,17.2222297 4.63317568,17.9537838 C4.63317568,25.2985135 10.6083243,31.2742703 17.9536622,31.2742703 C25.299,31.2742703 31.2741486,25.2986351 31.2741486,17.9537838 C31.2741486,17.2222297 31.2121216,16.5046622 31.0986486,15.804973 Z M17.9536622,5.7915 C23.4625135,5.7915 28.1212297,9.47602703 29.6113378,14.5082432 C26.3333919,11.9594189 22.028473,10.4246757 17.9536622,10.4246757 C13.8788514,10.4246757 9.57454054,11.9594189 6.29598649,14.5088514 C7.78609459,9.47602703 12.4448108,5.7915 17.9536622,5.7915 Z M6.53740541,22.1072838 C7.34533784,21.3955541 9.49451351,19.691027 11.583,19.691027 C13.6939865,19.691027 15.0578514,21.2825676 15.0578514,23.7450405 C15.0578514,26.0981757 13.9030541,28.1999189 13.2712297,29.1756892 C10.1530946,27.8698378 7.70217568,25.2966892 6.53740541,22.1072838 Z M22.635,29.1764189 C22.0025676,28.2028378 20.849473,26.1063243 20.849473,23.7451622 C20.849473,21.2825676 22.2133378,19.6911486 24.3243243,19.6911486 C26.406973,19.6911486 28.5602838,21.3961622 29.3693108,22.1085 C28.2046622,25.2972973 25.7536216,27.8704459 22.635,29.1764189 Z M29.739527,20.9009189 C28.634473,19.9950811 26.5125405,18.5328243 24.3244459,18.5328243 C21.5965946,18.5328243 19.6912703,20.6762838 19.6912703,23.7451622 C19.6912703,26.2371892 20.7917027,28.4160405 21.5162027,29.5812973 C20.3891351,29.9270676 19.1932297,30.1158243 17.9539054,30.1158243 C16.7145811,30.1158243 15.5183108,29.9270676 14.3913649,29.5812973 C15.1158649,28.4160405 16.2162973,26.2373108 16.2162973,23.7451622 C16.2162973,20.6762838 14.3108514,18.5328243 11.5831216,18.5328243 C9.39514865,18.5328243 7.27309459,19.9952027 6.16804054,20.9009189 C5.93112162,19.9551892 5.79162162,18.9717568 5.79162162,17.9536622 C5.79162162,17.4122027 5.83966216,16.8827838 5.90862162,16.3598108 C9.07710811,13.4073243 13.6512973,11.583 17.9537838,11.583 C22.2568784,11.583 26.8309459,13.4073243 29.9989459,16.3598108 C30.0679054,16.8827838 30.1159459,17.4120811 30.1159459,17.9536622 C30.1159459,18.9717568 29.9763243,19.9551892 29.739527,20.9009189 Z" id="Shape"></path>
                                <path d="M17.9536622,13.3203649 C16.3568919,13.3203649 15.0578514,14.6194054 15.0578514,16.2161757 C15.0578514,17.8129459 16.3568919,19.1119865 17.9536622,19.1119865 C19.5504324,19.1119865 20.849473,17.8129459 20.849473,16.2161757 C20.849473,14.6194054 19.5504324,13.3203649 17.9536622,13.3203649 Z M17.9536622,17.9536622 C16.9957703,17.9536622 16.2161757,17.1740676 16.2161757,16.2161757 C16.2161757,15.2582838 16.9957703,14.4786892 17.9536622,14.4786892 C18.9115541,14.4786892 19.6911486,15.2582838 19.6911486,16.2161757 C19.6911486,17.1740676 18.9115541,17.9536622 17.9536622,17.9536622 Z" id="Shape"></path>
                                <path d="M34.7901081,8.32354054 L35.8656081,7.89324324 C34.6592432,4.87532432 31.0540135,1.26948649 28.6372703,0.0608108108 L28.1189189,1.09690541 C30.3045811,2.1897973 33.695027,5.58474324 34.7901081,8.32354054 Z" id="Shape"></path>
                                <rect id="Rectangle-path" x="12.7413243" y="15.6370135" width="1.15832432" height="1.15832432"></rect>
                                <rect id="Rectangle-path" x="22.0076757" y="15.6370135" width="1.15832432" height="1.15832432"></rect>
                                <rect id="Rectangle-path" x="16.2161757" y="32.432473" width="1.15832432" height="1.15832432"></rect>
                                <rect id="Rectangle-path" x="18.5328243" y="32.432473" width="1.15832432" height="1.15832432"></rect>
                                <path d="M1.11721622,27.5837838 L0.0417162162,28.0140811 C1.24868919,31.0315135 4.85391892,34.6378378 7.27005405,35.8459054 L7.78840541,34.8098108 C5.60274324,33.717527 2.2122973,30.3225811 1.11721622,27.5837838 Z" id="Shape"></path>
                            </g>
                        </g>
                    </g>
                </g>
            </g>
        </g>
    </g>
</svg>