<?xml version="1.0" encoding="UTF-8"?>
<svg width="39px" height="36px" viewBox="0 0 39 36" version="1.1" xmlns="http://www.w3.org/2000/svg" xmlns:xlink="http://www.w3.org/1999/xlink">
    <!-- Generator: Sketch 41 (35326) - http://www.bohemiancoding.com/sketch -->
    <title>car-2</title>
    <desc>Created with Sketch.</desc>
    <defs></defs>
    <g id="Diseños-finales" stroke="none" stroke-width="1" fill="none" fill-rule="evenodd">
        <g id="07-vender-E" transform="translate(-354.000000, -292.000000)">
            <g id="fotos-card" transform="translate(185.000000, 199.000000)">
                <g id="image-2" transform="translate(142.625000, 85.000000)">
                    <g id="car-2" transform="translate(27.000000, 8.000000)">
                        <g id="Layer_1">
                            <g id="Group">
                                <g>
                                    <g>
                                        <path d="M16.2240244,20.5706862 L21.2160487,20.5706862 C21.5904487,20.5706862 21.8400244,20.3136402 21.8400244,19.9280335 C21.8400244,19.5424268 21.5904487,19.2853808 21.2160487,19.2853808 L16.2240244,19.2853808 C15.8496244,19.2853808 15.6000487,19.5424268 15.6000487,19.9280335 C15.6000487,20.3136402 15.8496244,20.5706862 16.2240244,20.5706862 Z" id="Shape" fill="#8994A0"></path>
                                        <path d="M23.0879756,21.8560669 L14.3520244,21.8560669 C13.9776244,21.8560669 13.7280488,22.113113 13.7280488,22.4987197 C13.7280488,22.8843264 13.9776244,23.1413724 14.3520244,23.1413724 L23.0880488,23.1413724 C23.4624488,23.1413724 23.7120244,22.8843264 23.7120244,22.4987197 C23.7120244,22.113113 23.4623756,21.8560669 23.0879756,21.8560669 Z" id="Shape" fill="#8994A0"></path>
                                        <path d="M32.1366094,6.43179916 L31.1375756,2.6399749 C30.7008,1.09754812 29.3279513,0.0049707113 27.7679756,0.0049707113 L9.67202438,0.0049707113 C8.11204875,0.0049707113 6.7392,1.09754812 6.30242438,2.6399749 L5.30339063,6.43179916 L4.96474875,7.71717992 L3.1592925,14.5697573 L1.56004875,17.807272 C1.37284875,18.2571213 1.24802438,18.7712887 1.24802438,19.2854561 L1.24802438,26.458569 C0.509169375,26.7138075 0,27.4174644 0,28.2828201 L0,29.5682008 C0,30.6607782 0.811175625,31.4962343 1.872,31.4962343 L3.12002438,31.4962343 L3.12002438,33.4242678 C3.12002438,34.8381339 4.24322438,35.994954 5.616,35.994954 L8.11197563,35.994954 C9.48475125,35.994954 10.6079513,34.8381339 10.6079513,33.4242678 L10.6079513,31.4962343 L26.208,31.4962343 L26.208,33.4242678 C26.208,34.8381339 27.3312,35.994954 28.7039756,35.994954 L31.1999512,35.994954 C32.5727269,35.994954 33.6959269,34.8381339 33.6959269,33.4242678 L33.6959269,31.4962343 L35.5679269,31.4962343 C36.6287513,31.4962343 37.4399269,30.6607782 37.4399269,29.5682008 L37.4399269,28.2828201 C37.4399269,27.4173891 36.9307575,26.7138075 36.1919025,26.4584184 L36.1919025,19.2853054 C36.1919025,18.7711381 36.0670781,18.257046 35.8798781,17.8071213 L34.2806344,14.5696067 L32.4751781,7.71702929 L32.1366094,6.43179916 Z M9.36,33.4242678 C9.36,34.1312385 8.7984,34.7096485 8.11197562,34.7096485 L5.616,34.7096485 C4.92957562,34.7096485 4.36797562,34.1312385 4.36797562,33.4242678 L4.36797562,31.4962343 L9.36,31.4962343 L9.36,33.4242678 Z M32.4479756,33.4242678 C32.4479756,34.1312385 31.8863756,34.7096485 31.1999513,34.7096485 L28.7039756,34.7096485 C28.0175513,34.7096485 27.4559512,34.1312385 27.4559512,33.4242678 L27.4559512,31.4962343 L32.4479756,31.4962343 L32.4479756,33.4242678 Z M36.1919756,29.5682008 C36.1919756,29.9538075 35.9424,30.2108536 35.568,30.2108536 L33.696,30.2108536 L26.208,30.2108536 L10.6080244,30.2108536 L3.12002438,30.2108536 L1.872,30.2108536 C1.4976,30.2108536 1.24802438,29.9538075 1.24802438,29.5682008 L1.24802438,28.2828201 C1.24802438,27.8972134 1.4976,27.6401674 1.872,27.6401674 L35.568,27.6401674 C35.9424,27.6401674 36.1919756,27.8972134 36.1919756,28.2828201 L36.1919756,29.5682008 L36.1919756,29.5682008 Z M34.9440244,19.2853808 L34.9440244,26.3548619 L2.49597563,26.3548619 L2.49597563,19.2853808 C2.49597563,18.9640167 2.55835125,18.642728 2.68317563,18.3856067 L4.1184,15.4293138 L33.3216,15.4293138 L34.7568244,18.3856067 C34.8815756,18.7069707 34.9440244,18.9640167 34.9440244,19.2853808 Z M19.7183756,14.1439331 L12.7296,14.1439331 L10.9824244,14.1439331 L4.55517562,14.1439331 L7.488,2.96133891 C7.80002437,1.99732218 8.67357562,1.29035146 9.67202437,1.29035146 L27.7680487,1.29035146 C28.7664244,1.29035146 29.6400487,1.99732218 29.9520731,2.96133891 L32.8848975,14.1439331 L21.4656244,14.1439331 L19.7183756,14.1439331 Z" id="Shape" fill="#8994A0"></path>
                                        <ellipse id="Oval-4" stroke="#8994A0" stroke-width="1.3" cx="7.13142857" cy="21.6" rx="2.67428571" ry="2.7"></ellipse>
                                        <ellipse id="Oval-4-Copy" stroke="#8994A0" stroke-width="1.3" cx="30.3085714" cy="21.6" rx="2.67428571" ry="2.7"></ellipse>
                                    </g>
                                </g>
                            </g>
                        </g>
                    </g>
                </g>
            </g>
        </g>
    </g>
</svg>