<?xml version="1.0" encoding="UTF-8"?>
<svg width="45px" height="31px" viewBox="0 0 45 31" version="1.1" xmlns="http://www.w3.org/2000/svg" xmlns:xlink="http://www.w3.org/1999/xlink">
    <!-- Generator: Sketch 41 (35326) - http://www.bohemiancoding.com/sketch -->
    <title>car3</title>
    <desc>Created with Sketch.</desc>
    <defs></defs>
    <g id="Diseños-finales" stroke="none" stroke-width="1" fill="none" fill-rule="evenodd">
        <g id="07-vender-E" transform="translate(-464.000000, -294.000000)" fill="#8994A0">
            <g id="fotos-card" transform="translate(185.000000, 199.000000)">
                <g id="image-3" transform="translate(255.250000, 85.000000)">
                    <g id="car3" transform="translate(46.000000, 26.000000) scale(-1, 1) translate(-46.000000, -26.000000) translate(24.000000, 10.500000)">
                        <g id="Group">
                            <path d="M11.8129702,26.6881415 C13.6196851,26.6881415 15.089566,25.2329268 15.089566,23.444239 C15.089566,21.6555512 13.6196851,20.2003366 11.8129702,20.2003366 C10.0062553,20.2003366 8.53637447,21.6555512 8.53637447,23.444239 C8.53637447,25.2329268 10.0062553,26.6881415 11.8129702,26.6881415 Z M11.8129702,21.5905805 C12.8453787,21.5905805 13.6853106,22.4221317 13.6853106,23.444239 C13.6853106,24.4663463 12.8453787,25.2978976 11.8129702,25.2978976 C10.7805617,25.2978976 9.94062979,24.4663463 9.94062979,23.444239 C9.94062979,22.4221317 10.7804681,21.5905805 11.8129702,21.5905805 Z" id="Shape"></path>
                            <path d="M32.1870298,20.2003366 C30.3803149,20.2003366 28.910434,21.6555512 28.910434,23.444239 C28.910434,25.2329268 30.3803149,26.6881415 32.1870298,26.6881415 C33.9937447,26.6881415 35.4636255,25.2329268 35.4636255,23.444239 C35.4636255,21.6555512 33.9937447,20.2003366 32.1870298,20.2003366 Z M32.1870298,25.2978976 C31.1546213,25.2978976 30.3146894,24.4663463 30.3146894,23.444239 C30.3146894,22.4221317 31.1546213,21.5905805 32.1870298,21.5905805 C33.2194383,21.5905805 34.0593702,22.4221317 34.0593702,23.444239 C34.0593702,24.4663463 33.2195319,25.2978976 32.1870298,25.2978976 Z" id="Shape"></path>
                            <path d="M12.8723404,4.17527317 L15.0984596,4.17527317 C15.4863149,4.17527317 15.8005872,3.8640439 15.8005872,3.48015122 C15.8005872,3.09625854 15.4863149,2.78502927 15.0984596,2.78502927 L12.8723404,2.78502927 C11.8965702,2.78502927 10.3417787,3.45012195 9.67279149,4.15367805 L4.04753191,10.0710195 C3.8555234,10.2729756 3.80328511,10.5685415 3.91431489,10.8231415 C4.0254383,11.0777415 4.27876596,11.2425317 4.55886809,11.2425317 L31.7331745,11.2425317 C31.9730213,11.2425317 32.1961106,11.1213951 32.3251149,10.9212 C32.4540255,10.7210976 32.4709702,10.4695561 32.3698638,10.2543463 L29.4814043,4.1034439 C29.1710638,3.4504 28.1119745,2.78502927 27.3829787,2.78502927 L17.9069702,2.78502927 C17.5191149,2.78502927 17.2048426,3.09625854 17.2048426,3.48015122 L17.2047489,9.8522878 L6.18396596,9.8522878 L10.6953702,5.10655122 C11.0925872,4.68873659 12.2930383,4.17527317 12.8723404,4.17527317 Z M18.6090979,4.17527317 L27.3810128,4.17527317 C27.5872511,4.18481951 28.1151574,4.51643902 28.2094298,4.69253659 L30.6325191,9.8522878 L18.6090043,9.8522878 L18.6090979,4.17527317 L18.6090979,4.17527317 Z" id="Shape"></path>
                            <path d="M44,17.303161 C44,14.834922 42.0757021,12.1917902 39.7105617,11.4113073 C39.7089702,11.4107512 36.4266638,10.3275659 36.4266638,10.3275659 C35.8786298,10.1467415 35.1557191,9.5108439 34.9097872,8.9934878 L32.0226383,2.9195122 C31.2457106,1.2849561 29.2077617,0.00454146341 27.3829787,0.00454146341 L12.8723404,0.00454146341 C11.1274128,0.00454146341 8.82368511,0.989946341 7.62772766,2.24802439 L1.1533617,9.05855122 C0.506561702,9.7388439 0,11.0034098 0,11.9376537 L0,20.6637512 C0,22.5802488 1.57482553,24.139361 3.5106383,24.139361 L4.82689362,24.139361 C5.18029787,27.647039 8.17838298,30.3954585 11.8129702,30.3954585 C15.4475574,30.3954585 18.4456426,27.647039 18.7990468,24.139361 L23.0594638,24.139361 C23.4473191,24.139361 23.7615915,23.8281317 23.7615915,23.444239 C23.7615915,23.0603463 23.4473191,22.7491171 23.0594638,22.7491171 L18.7990468,22.7491171 C18.4456426,19.241439 15.4475574,16.4930195 11.8129702,16.4930195 C8.17838298,16.4930195 5.18029787,19.241439 4.82689362,22.7491171 L3.5106383,22.7491171 C2.34922553,22.7491171 1.40425532,21.8136683 1.40425532,20.6637512 L1.40425532,11.9376537 C1.40425532,11.3543073 1.7720766,10.4361902 2.17584681,10.0114244 L8.65030638,3.20080488 C9.58095319,2.22179512 11.5144255,1.39478537 12.8723404,1.39478537 L27.3829787,1.39478537 C28.6638468,1.39478537 30.2066553,2.36406341 30.7519745,3.51147805 L33.6391234,9.58545366 C34.0530043,10.4562098 35.060417,11.3422585 35.9824511,11.6465366 L38.6503489,12.5269317 C38.6042894,12.7902439 38.5803234,13.0579122 38.5803234,13.3278976 C38.5803234,15.6670293 40.3262809,17.6096634 42.5957447,17.9463805 L42.5957447,20.6638439 C42.5957447,21.813761 41.8133872,22.7492098 40.851566,22.7492098 L39.1731064,22.7492098 C38.8197021,19.2415317 35.821617,16.4931122 32.1870298,16.4931122 C28.3154979,16.4931122 25.1657532,19.6114293 25.1657532,23.4443317 C25.1657532,27.2772341 28.3154979,30.3955512 32.1870298,30.3955512 C35.821617,30.3955512 38.8197021,27.6471317 39.1731064,24.1394537 L40.851566,24.1394537 C42.5876,24.1394537 44,22.5803415 44,20.6638439 L44,17.303161 Z M11.8129702,17.8832634 C14.9101957,17.8832634 17.4299915,20.3779171 17.4299915,23.444239 C17.4299915,26.510561 14.9101957,29.0052146 11.8129702,29.0052146 C8.71574468,29.0052146 6.19594894,26.510561 6.19594894,23.444239 C6.19594894,20.3779171 8.71574468,17.8832634 11.8129702,17.8832634 Z M32.1870298,29.0052146 C29.0898043,29.0052146 26.5700085,26.510561 26.5700085,23.444239 C26.5700085,20.3779171 29.0898043,17.8832634 32.1870298,17.8832634 C35.2842553,17.8832634 37.8040511,20.3779171 37.8040511,23.444239 C37.8040511,26.510561 35.2842553,29.0052146 32.1870298,29.0052146 Z M39.9845787,13.3278976 C39.9845787,13.2380878 39.9883234,13.1486488 39.9955319,13.0597659 C41.2275319,13.7666585 42.2224,15.1330829 42.5104596,16.5136878 C41.0625787,16.1628829 39.9845787,14.8680098 39.9845787,13.3278976 Z" id="Shape"></path>
                        </g>
                    </g>
                </g>
            </g>
        </g>
    </g>
</svg>