<?xml version="1.0" encoding="UTF-8"?>
<svg width="24px" height="24px" viewBox="0 0 24 24" version="1.1" xmlns="http://www.w3.org/2000/svg" xmlns:xlink="http://www.w3.org/1999/xlink">
    <!-- Generator: Sketch 41 (35326) - http://www.bohemiancoding.com/sketch -->
    <title>correct</title>
    <desc>Created with Sketch.</desc>
    <defs></defs>
    <g id="Diseños-finales" stroke="none" stroke-width="1" fill="none" fill-rule="evenodd">
        <g id="07-vender-G" transform="translate(-88.000000, -344.000000)" fill="#EF4039">
            <g id="correct" transform="translate(88.000000, 344.000000)">
                <g id="Group">
                    <path d="M7.07692308,11.3025641 C6.74871795,10.974359 6.21538462,10.974359 5.88717949,11.3025641 C5.55897436,11.6307692 5.55897436,12.1641026 5.88717949,12.4923077 L9.76410256,16.3692308 C9.92820513,16.5333333 10.1333333,16.6153846 10.3589744,16.6153846 L10.4,16.6153846 C10.625641,16.5948718 10.8512821,16.4923077 11.0153846,16.3076923 L20.7179487,4.67692308 C21.0051282,4.32820513 20.9641026,3.79487179 20.6153846,3.48717949 C20.2666667,3.2 19.7333333,3.24102564 19.425641,3.58974359 L10.2974359,14.5230769 L7.07692308,11.3025641 L7.07692308,11.3025641 Z" id="Shape"></path>
                    <path d="M18.2769231,1.90769231 C13.5589744,-1.04615385 7.50769231,-0.348717949 3.56923077,3.58974359 C-1.06666667,8.22564103 -1.06666667,15.7948718 3.56923077,20.4307692 C5.88717949,22.7487179 8.94358974,23.9179487 11.9794872,23.9179487 C15.0153846,23.9179487 18.0717949,22.7487179 20.3897436,20.4307692 C24.3487179,16.4717949 25.025641,10.4 22.0512821,5.68205128 C21.8051282,5.29230769 21.2923077,5.16923077 20.9025641,5.41538462 C20.5128205,5.66153846 20.3897436,6.17435897 20.6358974,6.56410256 C23.2,10.625641 22.6051282,15.8358974 19.2,19.2410256 C15.2205128,23.2205128 8.71794872,23.2205128 4.73846154,19.2410256 C0.758974359,15.2615385 0.758974359,8.75897436 4.73846154,4.77948718 C8.14358974,1.39487179 13.3333333,0.8 17.3948718,3.32307692 C17.7846154,3.56923077 18.2974359,3.44615385 18.5435897,3.05641026 C18.7897436,2.66666667 18.6666667,2.15384615 18.2769231,1.90769231 L18.2769231,1.90769231 Z" id="Shape"></path>
                </g>
            </g>
        </g>
    </g>
</svg>