<?xml version="1.0" encoding="UTF-8" standalone="no"?>
<svg
   xmlns:dc="http://purl.org/dc/elements/1.1/"
   xmlns:cc="http://creativecommons.org/ns#"
   xmlns:rdf="http://www.w3.org/1999/02/22-rdf-syntax-ns#"
   xmlns:svg="http://www.w3.org/2000/svg"
   xmlns="http://www.w3.org/2000/svg"
   xmlns:sodipodi="http://sodipodi.sourceforge.net/DTD/sodipodi-0.dtd"
   xmlns:inkscape="http://www.inkscape.org/namespaces/inkscape"
   width="26px"
   height="18px"
   viewBox="0 0 26 18"
   version="1.1"
   id="svg19"
   sodipodi:docname="email.svg"
   inkscape:version="0.92.1 unknown">
  <metadata
     id="metadata23">
    <rdf:RDF>
      <cc:Work
         rdf:about="">
        <dc:format>image/svg+xml</dc:format>
        <dc:type
           rdf:resource="http://purl.org/dc/dcmitype/StillImage" />
      </cc:Work>
    </rdf:RDF>
  </metadata>
  <sodipodi:namedview
     pagecolor="#ffffff"
     bordercolor="#666666"
     borderopacity="1"
     objecttolerance="10"
     gridtolerance="10"
     guidetolerance="10"
     inkscape:pageopacity="0"
     inkscape:pageshadow="2"
     inkscape:window-width="688"
     inkscape:window-height="480"
     id="namedview21"
     showgrid="false"
     inkscape:zoom="13.111111"
     inkscape:cx="13"
     inkscape:cy="9"
     inkscape:window-x="252"
     inkscape:window-y="70"
     inkscape:window-maximized="0"
     inkscape:current-layer="svg19" />
  <!-- Generator: Sketch 41 (35326) - http://www.bohemiancoding.com/sketch -->
  <title
     id="title2">email</title>
  <desc
     id="desc4">Created with Sketch.</desc>
  <defs
     id="defs6" />
  <g
     id="Diseños-finales"
     stroke="none"
     stroke-width="1"
     fill="none"
     fill-rule="evenodd"
     style="fill:#1a1a1a">
    <g
       id="10-perfil-tus-datos"
       transform="translate(-338.000000, -300.000000)"
       fill="#EF4039"
       style="fill:#1a1a1a">
      <g
         id="card-profile"
         transform="translate(153.000000, 179.000000)"
         style="fill:#1a1a1a">
        <g
           id="email"
           transform="translate(174.000000, 96.000000)"
           style="fill:#1a1a1a">
          <g
             transform="translate(11.000000, 25.000000)"
             id="Layer_1"
             style="fill:#1a1a1a">
            <g
               id="g12"
               style="fill:#1a1a1a">
              <g
                 id="Group"
                 style="fill:#1a1a1a">
                <path
                   d="M22.4713166,0.0685285714 C20.670392,0.0685285714 19.1957085,1.45234286 19.0781206,3.19564286 L0.454020101,3.19564286 C0.44121608,3.19564286 0.430371859,3.20181429 0.417829146,3.20284286 C0.387256281,3.20528571 0.358773869,3.21197143 0.329246231,3.22045714 C0.300502513,3.22868571 0.273457286,3.23717143 0.247457286,3.25054286 C0.223547739,3.26275714 0.202643216,3.27818571 0.180954774,3.29464286 C0.155085427,3.31444286 0.131567839,3.33462857 0.110532663,3.35918571 C0.102824121,3.36831429 0.0919798995,3.37307143 0.0847939698,3.38284286 C0.0753869347,3.39582857 0.0735577889,3.41112857 0.065718593,3.42475714 C0.050040201,3.45162857 0.0373668342,3.4785 0.0275678392,3.50858571 C0.018160804,3.53777143 0.0128040201,3.56605714 0.00966834171,3.59601429 C0.00783919598,3.61195714 0,3.62597143 0,3.64242857 L0,17.4911143 C0,17.5492286 0.0120201005,17.6072143 0.0350150754,17.6617286 C0.0810050251,17.7711429 0.169457286,17.8581857 0.280643216,17.9034429 C0.336170854,17.9259429 0.394964824,17.9379 0.454020101,17.9379 L22.6982613,17.9379 C22.7573166,17.9379 22.8161106,17.9260714 22.8716382,17.9034429 C22.9828241,17.8581857 23.0712764,17.7710143 23.1172663,17.6617286 C23.1401307,17.6070857 23.1522814,17.5492286 23.1522814,17.4911143 L23.1522814,6.70204286 C24.7044422,6.39077143 25.8760101,5.03717143 25.8760101,3.4191 C25.8760101,1.57152857 24.3486734,0.0685285714 22.4713166,0.0685285714 L22.4713166,0.0685285714 Z M19.1350854,4.08908571 C19.2226231,4.5117 19.3924724,4.90474286 19.6255578,5.25342857 L11.5761407,10.9113429 L1.87030151,4.08908571 L19.1350854,4.08908571 L19.1350854,4.08908571 Z M22.2441106,16.4125286 L15.8466734,10.1169 C15.6693769,9.94242857 15.3820704,9.94242857 15.2047739,10.1169 C15.0274774,10.2913714 15.0274774,10.5741 15.2047739,10.7485714 L21.6024724,17.0442 L1.5499397,17.0442 L7.94763819,10.7484429 C8.12493467,10.5739714 8.12493467,10.2912429 7.94763819,10.1167714 C7.77034171,9.9423 7.48303518,9.9423 7.30573869,10.1167714 L0.907909548,16.4125286 L0.907909548,4.51028571 L11.3122211,11.8235571 C11.3911357,11.8789714 11.4833769,11.9068714 11.5760101,11.9068714 C11.6686432,11.9068714 11.7608844,11.8789714 11.839799,11.8235571 L20.2244724,5.92997143 C20.7712563,6.40427143 21.4723417,6.7077 22.2441106,6.7581 L22.2441106,16.4125286 L22.2441106,16.4125286 Z M22.4713166,5.87597143 C21.7580804,5.87597143 21.1152663,5.57845714 20.659809,5.10467143 C20.6552362,5.0976 20.6547136,5.08924286 20.6497487,5.08242857 C20.6306734,5.0562 20.6040201,5.04 20.5807638,5.01904286 C20.2039598,4.58858571 19.9745327,4.03007143 19.9745327,3.41897143 C19.9745327,2.06434286 21.0948844,0.961971429 22.4713166,0.961971429 C23.8478794,0.961971429 24.9681005,2.06447143 24.9681005,3.41897143 C24.9681005,4.77347143 23.8477487,5.87597143 22.4713166,5.87597143 L22.4713166,5.87597143 Z"
                   id="Shape"
                   style="fill:#1a1a1a" />
                <path
                   d="M22.4713166,1.40888571 C21.3448241,1.40888571 20.4284221,2.31068571 20.4284221,3.41922857 C20.4284221,4.52777143 21.3448241,5.42957143 22.4713166,5.42957143 C23.597809,5.42957143 24.5142111,4.52777143 24.5142111,3.41922857 C24.5142111,2.31068571 23.5976784,1.40888571 22.4713166,1.40888571 L22.4713166,1.40888571 Z M22.4713166,4.53587143 C21.8453568,4.53587143 21.3364623,4.03508571 21.3364623,3.4191 C21.3364623,2.80311429 21.8453568,2.30232857 22.4713166,2.30232857 C23.0972764,2.30232857 23.6061709,2.80311429 23.6061709,3.4191 C23.6061709,4.03508571 23.0972764,4.53587143 22.4713166,4.53587143 L22.4713166,4.53587143 Z"
                   id="path9"
                   style="fill:#1a1a1a" />
              </g>
            </g>
          </g>
        </g>
      </g>
    </g>
  </g>
</svg>
