<?xml version="1.0" encoding="UTF-8"?>
<svg width="18px" height="14px" viewBox="0 0 18 14" version="1.1" xmlns="http://www.w3.org/2000/svg" xmlns:xlink="http://www.w3.org/1999/xlink">
    <!-- Generator: Sketch 41 (35326) - http://www.bohemiancoding.com/sketch -->
    <title>estado</title>
    <desc>Created with Sketch.</desc>
    <defs></defs>
    <g id="Diseños-finales" stroke="none" stroke-width="1" fill="none" fill-rule="evenodd">
        <g id="02-Perfil" transform="translate(-39.000000, -1374.000000)" stroke-width="0.2" stroke="#000000" fill="#000000">
            <g id="estado" transform="translate(40.000000, 1371.000000)">
                <path d="M13.1447338,13.804229 L12.7926368,13.8608076 L12.7926368,15.118634 C12.7926368,15.4621354 12.567221,15.7211885 12.2681728,15.7211885 C11.9692919,15.7211885 11.7437088,15.4621354 11.7437088,15.118634 L11.7437088,13.8106088 L4.25578914,13.8106088 L4.25578914,15.118634 C4.25578914,15.4396382 3.97079803,15.7211885 3.64564376,15.7211885 C3.32065684,15.7211885 3.03549838,15.4396382 3.03549838,15.118634 L3.03549838,13.8653406 L2.70247882,13.7956666 C2.00564794,13.6502745 0.836732559,13.1373728 0.836732559,11.3387752 C0.836732559,9.92430822 1.39366175,9.41174232 2.49078548,8.91210389 C3.15364502,8.6104069 3.33069763,7.90745457 3.56498274,6.78545067 C3.84963916,5.42135045 4.43484991,4.83944629 5.52176551,4.83944629 L10.4707039,4.83944629 C11.7719904,4.83944629 12.2229892,5.87465145 12.372095,6.74297469 C12.3971969,6.88853467 12.41845,7.0257002 12.4381968,7.1537997 C12.5526619,7.89402343 12.6515636,8.53317784 13.2849702,8.76889435 C14.1929924,9.10719121 15.1634348,9.94445493 15.1634348,11.280014 C15.1634348,12.5338109 14.2955758,13.6190471 13.1447338,13.804229 M13.5761531,7.9819974 L13.5761531,7.9819974 C13.4188474,7.92340405 13.363121,7.65931425 13.265056,7.02519653 C13.2444723,6.89256401 13.2225499,6.75086548 13.1967786,6.60043671 C12.9129589,4.94773486 11.9192553,4 10.4707039,4 L5.52176551,4 C4.04175295,4 3.10779207,4.87923604 2.74598891,6.61336418 C2.54098944,7.59585211 2.41213262,8.02615228 2.14504759,8.14787199 C0.820667294,8.75076231 0,9.49501539 0,11.3387752 C0,12.9365773 0.814810166,14.1069333 2.19876582,14.5320289 L2.19876582,15.118634 C2.19876582,15.9003263 2.86145801,16.5606348 3.64564376,16.5606348 C4.42999686,16.5606348 5.0925217,15.9003263 5.0925217,15.118634 L5.0925217,14.650055 L10.9069763,14.650055 L10.9069763,15.118634 C10.9069763,15.9273565 11.5049053,16.5606348 12.2681728,16.5606348 C13.0314402,16.5606348 13.6293693,15.9273565 13.6293693,15.118634 L13.6293693,14.5543582 C15.0031168,14.1594826 16,12.8136823 16,11.280014 C16,9.82491778 15.0486351,8.53032372 13.5761531,7.9819974"></path>
            </g>
        </g>
    </g>
</svg>