<?xml version="1.0" encoding="UTF-8"?>
<svg width="25px" height="25px" viewBox="0 0 25 25" version="1.1" xmlns="http://www.w3.org/2000/svg" xmlns:xlink="http://www.w3.org/1999/xlink">
    <!-- Generator: Sketch 41 (35326) - http://www.bohemiancoding.com/sketch -->
    <title>facebook</title>
    <desc>Created with Sketch.</desc>
    <defs></defs>
    <g id="Diseños-finales" stroke="none" stroke-width="1" fill="none" fill-rule="evenodd">
        <g id="04-Registo" transform="translate(-44.000000, -218.000000)" fill="#FFFFFF">
            <g id="redes" transform="translate(32.000000, 208.000000)">
                <g id="button">
                    <path d="M35.6202387,10 L13.3797613,10 C12.6175673,10 12,10.6175673 12,11.3797613 L12,33.6202387 C12,34.3822454 12.6175673,35 13.3797613,35 L25.3532414,35 L25.3532414,25.318722 L22.0953,25.318722 L22.0953,21.5456886 L25.3532414,21.5456886 L25.3532414,18.7632169 C25.3532414,15.5341259 27.3254663,13.7758436 30.2060106,13.7758436 C31.5857719,13.7758436 32.7717296,13.8785997 33.1172788,13.9244981 L33.1172788,17.2990588 L31.1194819,17.2999955 C29.5528487,17.2999955 29.2495448,18.0443922 29.2495448,19.1367734 L29.2495448,21.5456886 L32.9857659,21.5456886 L32.4992431,25.318722 L29.2495448,25.318722 L29.2495448,35 L35.6202387,35 C36.3822454,35 37,34.3822454 37,33.6202387 L37,11.3797613 C37,10.6175673 36.3822454,10 35.6202387,10" id="facebook"></path>
                </g>
            </g>
        </g>
    </g>
</svg>