<?xml version="1.0" encoding="UTF-8"?>
<svg width="20px" height="21px" viewBox="0 0 20 21" version="1.1" xmlns="http://www.w3.org/2000/svg" xmlns:xlink="http://www.w3.org/1999/xlink">
    <!-- Generator: Sketch 41 (35326) - http://www.bohemiancoding.com/sketch -->
    <title>fav-active</title>
    <desc>Created with Sketch.</desc>
    <defs></defs>
    <g id="Diseños-finales" stroke="none" stroke-width="1" fill="none" fill-rule="evenodd">
        <g id="01-Home" transform="translate(-726.000000, -1084.000000)" fill="#EF4039">
            <g id="autos" transform="translate(294.000000, 553.000000)">
                <g id="Group-3-Copy" transform="translate(0.000000, 316.333333)">
                    <g id="Group-5" transform="translate(240.000000, 0.000000)">
                        <g id="fav-active" transform="translate(192.000000, 215.000000)">
                            <path d="M19.9065438,8.47863248 C19.8552618,8.23931624 19.6672276,8.05128205 19.4450054,7.96581197 L13.6843216,6.03418803 L10.6073985,0.376068376 C10.4877404,0.136752137 10.2313301,0 9.97491989,0 C9.71850964,0 9.46209938,0.136752137 9.34244126,0.376068376 L6.2826122,6.01709402 L0.504834422,7.76068376 C0.265518182,7.82905983 0.0774839942,8.01709402 0.0262019429,8.25641026 C-0.0421741255,8.4957265 0.0262019429,8.75213675 0.197142114,8.94017094 L3.99201391,13.0940171 L2.41936434,18.957265 C2.35098827,19.2136752 2.43645835,19.5042735 2.64158656,19.6752137 C2.84671476,19.8632479 3.13731305,19.9145299 3.37662929,19.8119658 L9.97491989,17.1794872 L16.5732105,19.8119658 C16.6586806,19.8461538 16.7441507,19.8632479 16.8467148,19.8632479 C17.0176549,19.8632479 17.1885951,19.7948718 17.3253472,19.6752137 C17.5304754,19.4871795 17.6159455,19.2136752 17.5475695,18.957265 L15.9749199,13.0940171 L19.7356037,9.14529915 C19.8894498,8.95726496 19.9578259,8.71794872 19.9065438,8.47863248 L19.9065438,8.47863248 Z" id="Shape"></path>
                        </g>
                    </g>
                </g>
            </g>
        </g>
    </g>
</svg>