<?xml version="1.0" encoding="UTF-8"?>
<svg width="14px" height="14px" viewBox="0 0 14 14" version="1.1" xmlns="http://www.w3.org/2000/svg" xmlns:xlink="http://www.w3.org/1999/xlink">
    <!-- Generator: Sketch 41 (35326) - http://www.bohemiancoding.com/sketch -->
    <title>favorite</title>
    <desc>Created with Sketch.</desc>
    <defs></defs>
    <g id="Diseños-finales" stroke="none" stroke-width="1" fill="none" fill-rule="evenodd">
        <g id="02-Perfil" transform="translate(-663.000000, -1033.000000)" fill="#000000">
            <g id="confort" transform="translate(663.000000, 1029.000000)">
                <g id="favorite" transform="translate(0.000000, 4.000000)">
                    <path d="M13.9641026,5.98290598 C13.9282051,5.81538462 13.7965812,5.68376068 13.6410256,5.62393162 L9.60854701,4.27179487 L7.45470085,0.311111111 C7.37094017,0.143589744 7.19145299,0.0478632479 7.01196581,0.0478632479 C6.83247863,0.0478632479 6.65299145,0.143589744 6.56923077,0.311111111 L4.42735043,4.25982906 L0.382905983,5.48034188 C0.215384615,5.52820513 0.0837606838,5.65982906 0.0478632479,5.82735043 C-1.12743148e-13,5.99487179 0.0478632479,6.17435897 0.167521368,6.30598291 L2.82393162,9.21367521 L1.72307692,13.3179487 C1.67521368,13.4974359 1.73504274,13.7008547 1.87863248,13.8205128 C2.02222222,13.9521368 2.22564103,13.9880342 2.39316239,13.9162393 L7.01196581,12.0735043 L11.6307692,13.9162393 C11.6905983,13.9401709 11.7504274,13.9521368 11.8222222,13.9521368 C11.9418803,13.9521368 12.0615385,13.9042735 12.157265,13.8205128 C12.3008547,13.6888889 12.3606838,13.4974359 12.3128205,13.3179487 L11.2119658,9.21367521 L13.8444444,6.44957265 C13.9521368,6.31794872 14,6.15042735 13.9641026,5.98290598 L13.9641026,5.98290598 Z M10.2905983,8.72307692 C10.1709402,8.85470085 10.1230769,9.03418803 10.1709402,9.2017094 L11.0923077,12.6 L7.2034188,11.0683761 C7.14358974,11.0444444 7.08376068,11.0324786 7.01196581,11.0324786 C6.95213675,11.0324786 6.88034188,11.0444444 6.82051282,11.0683761 L2.94358974,12.6119658 L3.86495726,9.21367521 C3.91282051,9.04615385 3.86495726,8.86666667 3.74529915,8.74700855 L1.43589744,6.21025641 L4.91794872,5.16923077 C5.04957265,5.13333333 5.15726496,5.04957265 5.21709402,4.92991453 L7.01196581,1.61538462 L8.80683761,4.92991453 C8.86666667,5.03760684 8.96239316,5.12136752 9.09401709,5.16923077 L12.5641026,6.32991453 L10.2905983,8.72307692 L10.2905983,8.72307692 Z" id="Shape"></path>
                </g>
            </g>
        </g>
    </g>
</svg>