<?xml version="1.0" encoding="UTF-8"?>
<svg width="218px" height="243px" viewBox="0 0 218 243" version="1.1" xmlns="http://www.w3.org/2000/svg" xmlns:xlink="http://www.w3.org/1999/xlink">
    <!-- Generator: Sketch 41 (35326) - http://www.bohemiancoding.com/sketch -->
    <title>favoritos-empty</title>
    <desc>Created with Sketch.</desc>
    <defs>
        <path d="M265,41 L5.99102711,41 C2.68168537,41 0,43.6856661 0,46.9986032 L0,711.001397 C0,714.311593 2.6822742,717 5.99102711,717 L1083.00897,717 C1086.31831,717 1089,714.314334 1089,711.001397 L1089,46.9986032 C1089,43.688407 1086.31773,41 1083.00897,41 L533,41 L533,0 L271.005143,0 C267.695969,0 265,2.68201099 265,5.99043921 L265,41 Z" id="path-1"></path>
        <filter x="-50%" y="-50%" width="200%" height="200%" filterUnits="objectBoundingBox" id="filter-2">
            <feOffset dx="0" dy="0" in="SourceAlpha" result="shadowOffsetOuter1"></feOffset>
            <feGaussianBlur stdDeviation="3" in="shadowOffsetOuter1" result="shadowBlurOuter1"></feGaussianBlur>
            <feComposite in="shadowBlurOuter1" in2="SourceAlpha" operator="out" result="shadowBlurOuter1"></feComposite>
            <feColorMatrix values="0 0 0 0 0   0 0 0 0 0   0 0 0 0 0  0 0 0 0.3 0" type="matrix" in="shadowBlurOuter1"></feColorMatrix>
        </filter>
        <mask id="mask-3" maskContentUnits="userSpaceOnUse" maskUnits="objectBoundingBox" x="0" y="0" width="1089" height="717" fill="white">
            <use xlink:href="#path-1"></use>
        </mask>
    </defs>
    <g id="Diseños-finales" stroke="none" stroke-width="1" fill="none" fill-rule="evenodd">
        <g id="10-perfil-los-autos-(favoritos)" transform="translate(-505.000000, -296.000000)">
            <rect id="Rectangle-13" fill="#F6F7F9" x="0" y="0" width="1280" height="1220"></rect>
            <g id="tus-autos" transform="translate(153.000000, 180.000000)">
                <g id="Combined-Shape">
                    <use fill="black" fill-opacity="1" filter="url(#filter-2)" xlink:href="#path-1"></use>
                    <use stroke="#DEDEE5" mask="url(#mask-3)" stroke-width="2" fill="#FFFFFF" fill-rule="evenodd" xlink:href="#path-1"></use>
                </g>
            </g>
            <path d="M505.5,424.5 L722.647415,424.5" id="Line" stroke="#DEDEE5" stroke-width="5" stroke-linecap="square"></path>
            <g id="icono-sugeridos" opacity="0.8" transform="translate(570.000000, 306.000000)" fill="#EE4038">
                <path d="M63.0952521,46.0657867 C59.4017521,46.0657867 56.3961479,43.0408533 56.3961479,39.3224533 C56.3961479,35.60312 59.4017521,32.5781867 63.0952521,32.5781867 C66.7887521,32.5781867 69.7943562,35.60312 69.7943562,39.3224533 C69.7943562,43.0408533 66.7887521,46.0657867 63.0952521,46.0657867 M25.5678458,46.0657867 C21.8743458,46.0657867 18.8696687,43.0408533 18.8696687,39.3224533 C18.8696687,35.60312 21.8743458,32.5781867 25.5678458,32.5781867 C29.2622729,32.5781867 32.26695,35.60312 32.26695,39.3224533 C32.26695,43.0408533 29.2622729,46.0657867 25.5678458,46.0657867 M76.1207729,38.02512 L73.5045437,38.02512 C72.8657833,32.80872 68.4463771,28.75432 63.0952521,28.75432 C57.9703354,28.75432 53.6992625,32.47272 52.7851583,37.3689867 C50.8558979,36.61392 48.0273667,35.8821867 44.3320125,35.8821867 C40.6366583,35.8821867 37.8072,36.61392 35.8779396,37.3689867 C34.9647625,32.47272 30.6927625,28.75432 25.5678458,28.75432 C20.2167208,28.75432 15.7963875,32.8096533 15.1585542,38.0260533 C15.1539187,38.0260533 15.1502104,38.02512 15.145575,38.02512 L12.5191479,38.02512 C11.4947208,38.02512 10.6649812,38.8604533 10.6649812,39.8917867 C10.6649812,40.9221867 11.4947208,41.7584533 12.5191479,41.7584533 L15.145575,41.7584533 C15.2188146,41.7584533 15.2874187,41.7453867 15.3588042,41.7369867 C16.4481271,46.4017867 20.6070229,49.8896533 25.5678458,49.8896533 C30.6185958,49.8896533 34.8451687,46.2804533 35.8408562,41.4896533 C36.7586687,40.9781867 39.5899812,39.7060533 44.3320125,39.7060533 C49.0230542,39.7060533 51.9007208,41.00432 52.82595,41.5036533 C53.8272,46.2869867 58.0500646,49.8896533 63.0952521,49.8896533 C68.056075,49.8896533 72.2140438,46.4036533 73.3042937,41.7388533 C73.3673354,41.7453867 73.4285229,41.7584533 73.4943458,41.7584533 L76.1207729,41.7584533 C77.1442729,41.7584533 77.9749396,40.9221867 77.9749396,39.8917867 C77.9749396,38.8604533 77.1442729,38.02512 76.1207729,38.02512" id="Fill-1"></path>
                <path d="M72.8208198,54.50424 L70.8702365,54.8187733 L70.8702365,61.8113067 C70.8702365,63.7209067 69.6214552,65.16104 67.9647573,65.16104 C66.3089865,65.16104 65.0592781,63.7209067 65.0592781,61.8113067 L65.0592781,54.5397067 L23.5769344,54.5397067 L23.5769344,61.8113067 C23.5769344,63.59584 21.9981115,65.16104 20.1967885,65.16104 C18.3963927,65.16104 16.8166427,63.59584 16.8166427,61.8113067 L16.8166427,54.8439733 L14.9717469,54.45664 C11.1113719,53.6483733 4.63569479,50.79704 4.63569479,40.79824 C4.63569479,32.9349067 7.72102812,30.08544 13.7989865,27.30784 C17.4711635,25.63064 18.4520177,21.7227733 19.7499344,15.4853067 C21.3269031,7.90197333 24.5689135,4.66704 30.5903198,4.66704 L58.0069552,4.66704 C65.2159552,4.66704 67.7144448,10.4219733 68.540476,15.2491733 C68.6795385,16.0583733 68.7972781,16.8209067 68.906674,17.53304 C69.540799,21.6481067 70.0887052,25.2013067 73.5977156,26.5117067 C78.6280698,28.3923733 84.004226,33.0469067 84.004226,40.4715733 C84.004226,47.4417067 79.1963719,53.4747733 72.8208198,54.50424 M75.2108406,22.1371733 L75.2108406,22.1371733 C74.3393823,21.81144 74.0306635,20.3433067 73.4873927,16.8181067 C73.3733615,16.0807733 73.2519135,15.29304 73.1091427,14.4567733 C71.5368094,5.26904 66.0317885,0.000373333333 58.0069552,0.000373333333 L30.5903198,0.000373333333 C22.3911948,0.000373333333 17.2171427,4.88824 15.2127885,14.52864 C14.0771115,19.9905067 13.3632573,22.38264 11.8836323,23.0593067 C4.54669479,26.4109067 0.000278125,30.5483733 0.000278125,40.79824 C0.000278125,49.6807733 4.51424688,56.18704 12.181226,58.55024 L12.181226,61.8113067 C12.181226,66.1569067 15.852476,69.8277067 20.1967885,69.8277067 C24.5420281,69.8277067 28.212351,66.1569067 28.212351,61.8113067 L28.212351,59.2063733 L60.4238615,59.2063733 L60.4238615,61.8113067 C60.4238615,66.3071733 63.7363302,69.8277067 67.9647573,69.8277067 C72.1931844,69.8277067 75.5056531,66.3071733 75.5056531,61.8113067 L75.5056531,58.6743733 C83.1160802,56.4791733 88.6387156,48.9975733 88.6387156,40.4715733 C88.6387156,32.3823733 83.3682469,25.18544 75.2108406,22.1371733" id="Fill-3"></path>
            </g>
            <circle id="Oval-6" stroke="#EF4039" stroke-width="2" fill="#FFFFFF" cx="683.5" cy="442.5" r="38.5"></circle>
            <g id="favorite" transform="translate(666.500000, 424.500000)" fill="#EF4039">
                <path d="M32.8980617,14.0120041 C32.8133117,13.616504 32.5025616,13.3057539 32.1353115,13.1645039 L22.6150587,9.97225295 L17.5300572,0.621500184 C17.3323071,0.226000067 16.908557,0 16.4848069,0 C16.0610567,0 15.6373066,0.226000067 15.4395566,0.621500184 L10.3828051,9.94400294 L0.834302233,12.8255038 C0.438802116,12.9385038 0.128052024,13.2492539 0.0433019987,13.644754 C-0.0696980348,14.0402542 0.0433019987,14.4640043 0.325802082,14.7747544 L6.59730394,21.6395064 L3.99830317,31.3292593 C3.88530314,31.7530094 4.02655318,32.2332595 4.36555328,32.5157596 C4.70455338,32.8265097 5.18480352,32.9112597 5.58030364,32.7417597 L16.4848069,28.3912584 L27.3893101,32.7417597 C27.5305601,32.7982597 27.6718102,32.8265097 27.8413102,32.8265097 C28.1238103,32.8265097 28.4063104,32.7135097 28.6323105,32.5157596 C28.9713106,32.2050095 29.1125606,31.7530094 28.9995606,31.3292593 L26.4005598,21.6395064 L32.6155616,15.1137545 C32.8698117,14.8030044 32.9828118,14.4075043 32.8980617,14.0120041 L32.8980617,14.0120041 Z" id="Shape"></path>
            </g>
        </g>
    </g>
</svg>