<?xml version="1.0" encoding="UTF-8"?>
<svg width="12px" height="17px" viewBox="0 0 12 17" version="1.1" xmlns="http://www.w3.org/2000/svg" xmlns:xlink="http://www.w3.org/1999/xlink">
    <!-- Generator: Sketch 41 (35326) - http://www.bohemiancoding.com/sketch -->
    <title>flame</title>
    <desc>Created with Sketch.</desc>
    <defs></defs>
    <g id="Diseños-finales" stroke="none" stroke-width="1" fill="none" fill-rule="evenodd">
        <g id="10-perfil-los-autos-(publicaciones)" transform="translate(-338.000000, -313.000000)" fill="#EF4039">
            <g id="publicación" transform="translate(153.000000, 258.000000)">
                <g id="car-data" transform="translate(185.000000, 19.500000)">
                    <g id="aplica-al-plan-de-garantias" transform="translate(0.000000, 34.500000)">
                        <g id="flame" transform="translate(0.000000, 1.000000)">
                            <g id="Layer_1">
                                <g id="Group">
                                    <path d="M9.95486316,5.96890877 C8.86012632,4.55164561 7.71486316,3.06439415 7.74854737,0.352347368 C7.74854737,0.21237076 7.68117895,0.107388304 7.56328421,0.0374 C7.44538947,-0.0150912281 7.31065263,-0.0150912281 7.2096,0.054897076 C5.37381053,1.41966901 3.74012632,4.41166901 4.21170526,8.05106082 C3.57170526,7.66612515 3.18433684,7.01873333 2.74644211,6.33634737 C2.61170526,6.10888538 2.47696842,5.88142339 2.32538947,5.67145848 C2.25802105,5.5839731 2.15696842,5.5139848 2.03907368,5.53148187 C1.92117895,5.53148187 1.82012632,5.60147018 1.7696,5.68895556 C0.893810526,7.10621871 0.00117894737,8.82093216 0.00117894737,10.6756222 C0.00117894737,14.3325111 2.47696842,16.9745696 5.89591579,16.9745696 C9.34854737,16.9745696 11.9590737,14.2625228 11.9590737,10.6756222 C11.9590737,8.55847602 10.9485474,7.24619532 9.95486316,5.96890877 Z M5.89591579,16.2746865 C2.86433684,16.2746865 0.674863158,13.9125813 0.674863158,10.6756222 C0.674863158,9.18837076 1.33170526,7.75361053 2.07275789,6.51131813 C2.10644211,6.58130643 2.15696842,6.63379766 2.19065263,6.70378596 C2.64538947,7.43866316 3.10012632,8.17354035 3.87486316,8.6459614 C4.09381053,8.78593801 4.36328421,8.78593801 4.58223158,8.6459614 C4.80117895,8.5059848 4.91907368,8.24352865 4.88538947,7.96357544 C4.48117895,4.97157544 5.64328421,2.45199649 7.09170526,1.08722456 C7.26012632,3.60680351 8.40538947,5.09405497 9.43275789,6.42383275 C10.4264421,7.7011193 11.2853895,8.80343509 11.2853895,10.6756222 C11.2853895,13.8600901 8.96117895,16.2746865 5.89591579,16.2746865 Z" id="Shape"></path>
                                    <path d="M10.4432842,9.62579766 C10.2580211,9.62579766 10.1064421,9.78327135 10.1064421,9.97573918 C10.1064421,11.1305462 9.82012632,12.1803708 9.23065263,13.1077158 C9.1296,13.2651895 9.18012632,13.4926515 9.33170526,13.5976339 C9.38223158,13.6326281 9.4496,13.6501251 9.51696842,13.6501251 C9.63486316,13.6501251 9.73591579,13.5976339 9.80328421,13.4926515 C10.4432842,12.4428269 10.7801263,11.2705228 10.7801263,9.97573918 C10.7801263,9.78327135 10.6285474,9.62579766 10.4432842,9.62579766 Z" id="Shape"></path>
                                    <path d="M9.06223158,13.9125813 C8.92749474,13.7901018 8.70854737,13.8075988 8.59065263,13.9475754 C8.50644211,14.0525579 8.38854737,14.1575404 8.27065263,14.2625228 C8.13591579,14.3850023 8.11907368,14.6124643 8.23696842,14.7524409 C8.30433684,14.8399263 8.40538947,14.8749205 8.4896,14.8749205 C8.57381053,14.8749205 8.64117895,14.8399263 8.70854737,14.7874351 C8.84328421,14.6649556 8.97802105,14.542476 9.09591579,14.4024994 C9.21381053,14.2625228 9.19696842,14.0350608 9.06223158,13.9125813 Z" id="Shape"></path>
                                </g>
                            </g>
                        </g>
                    </g>
                </g>
            </g>
        </g>
    </g>
</svg>