<?xml version="1.0" encoding="UTF-8"?>
<svg width="25px" height="16px" viewBox="0 0 25 16" version="1.1" xmlns="http://www.w3.org/2000/svg" xmlns:xlink="http://www.w3.org/1999/xlink">
    <!-- Generator: Sketch 41 (35326) - http://www.bohemiancoding.com/sketch -->
    <title>google-plus</title>
    <desc>Created with Sketch.</desc>
    <defs></defs>
    <g id="Diseños-finales" stroke="none" stroke-width="1" fill="none" fill-rule="evenodd">
        <g id="04-Registo" transform="translate(-293.000000, -223.000000)" fill="#FFFFFF">
            <g id="redes" transform="translate(32.000000, 208.000000)">
                <g id="button" transform="translate(243.000000, 0.000000)">
                    <g id="google-plus" transform="translate(18.000000, 15.000000)">
                        <path d="M8.7616485,9.66222979 L12.6633515,9.66222979 C11.9784741,11.5973447 10.1235014,12.9848511 7.95217984,12.9689191 C5.31737057,12.9495149 3.13855586,10.8428255 3.03637602,8.2112 C2.92677112,5.39043404 5.19094005,3.06042553 7.98916894,3.06042553 C9.26880109,3.06042553 10.4364441,3.54791489 11.3166894,4.34628085 C11.5252725,4.53542128 11.8425068,4.53671489 12.0476158,4.34362553 L13.4807902,2.99574468 C13.7049046,2.78488511 13.705654,2.42873191 13.4821526,2.21732766 C12.0862398,0.895251064 10.2134877,0.0712851064 8.148297,0.0311148936 C3.74366485,-0.055012766 0.0308583106,3.55451915 0.000272479564,7.95771915 C-0.0308583106,12.3941447 3.55790191,16 7.98916894,16 C12.2509537,16 15.7322207,12.6649191 15.965327,8.46386383 C15.9714578,8.41116596 15.9756812,6.63114894 15.9756812,6.63114894 L8.7616485,6.63114894 C8.46600817,6.63114894 8.22629428,6.87074043 8.22629428,7.16622979 L8.22629428,9.12714894 C8.22629428,9.4226383 8.46600817,9.66222979 8.7616485,9.66222979 L8.7616485,9.66222979 Z" id="Fill-1"></path>
                        <path d="M22.5865123,6.80932766 L22.5865123,4.89334468 C22.5865123,4.63434894 22.3765668,4.42451064 22.1174387,4.42451064 L20.5040872,4.42451064 C20.244891,4.42451064 20.0349455,4.63434894 20.0349455,4.89334468 L20.0349455,6.80932766 L18.1183243,6.80932766 C17.8591281,6.80932766 17.6489101,7.01916596 17.6489101,7.27822979 L17.6489101,8.89068936 C17.6489101,9.14948085 17.8591281,9.35959149 18.1183243,9.35959149 L20.0349455,9.35959149 L20.0349455,11.2753021 C20.0349455,11.5342979 20.244891,11.7442043 20.5040872,11.7442043 L22.1174387,11.7442043 C22.3765668,11.7442043 22.5865123,11.5342979 22.5865123,11.2753021 L22.5865123,9.35959149 L24.5034741,9.35959149 C24.7623978,9.35959149 24.9726158,9.14948085 24.9726158,8.89068936 L24.9726158,7.27822979 C24.9726158,7.01916596 24.7623978,6.80932766 24.5034741,6.80932766 L22.5865123,6.80932766 Z" id="Fill-3"></path>
                    </g>
                </g>
            </g>
        </g>
    </g>
</svg>