<?xml version="1.0" encoding="UTF-8"?>
<svg width="21px" height="18px" viewBox="0 0 21 18" version="1.1" xmlns="http://www.w3.org/2000/svg" xmlns:xlink="http://www.w3.org/1999/xlink">
    <!-- Generator: Sketch 41 (35326) - http://www.bohemiancoding.com/sketch -->
    <title>handshake</title>
    <desc>Created with Sketch.</desc>
    <defs></defs>
    <g id="Diseños-finales" stroke="none" stroke-width="1" fill="none" fill-rule="evenodd">
        <g id="07-vender-E" transform="translate(-214.000000, -1322.000000)" stroke-width="0.2" stroke="#000000" fill="#000000">
            <g id="handshake" transform="translate(215.000000, 1323.000000)">
                <g id="Layer_1">
                    <path d="M18.683851,5.91340659 L12.8450048,0.294065934 C12.4749615,-0.0624175824 11.8718029,-0.0618021978 11.5007548,0.295296703 L10.6020913,1.16008791 C10.4218654,1.33371429 10.3224808,1.56369231 10.3224808,1.808 C10.3222981,2.05169231 10.421226,2.28105495 10.6008125,2.4538022 L10.8637981,2.7069011 C10.5465529,2.82742857 10.1015144,3.0167033 9.5985625,3.28606593 C9.07834615,2.90461538 8.65513942,2.60228571 8.3920625,2.41635165 C8.72666346,2.05810989 8.71771154,1.50549451 8.35890385,1.16017582 L7.46024038,0.295120879 C7.08882692,-0.0613626374 6.48585096,-0.0617142857 6.11608173,0.294153846 L0.277235577,5.91349451 C-0.0929903846,6.26962637 -0.0923509615,6.85010989 0.278605769,7.20720879 L1.17726923,8.07226374 C1.36306731,8.25063736 1.60687019,8.34013187 1.85067308,8.34013187 C2.07712019,8.34013187 2.30174038,8.2596044 2.48105288,8.10487912 C2.69005288,8.38162637 3.03314904,8.83076923 3.44146635,9.34778022 L2.52325481,10.2312967 C2.46378846,10.2885275 2.43026442,10.3661538 2.43026442,10.4472967 C2.43026442,10.5284396 2.46378846,10.605978 2.52325481,10.6632967 L3.64553365,11.7433846 L3.64544231,11.7434725 L4.09422596,12.1753846 L4.09431731,12.1752967 L4.76762981,12.8232967 L5.21641346,13.2552088 L6.11425481,14.1192967 L6.11416346,14.1193846 L6.56312981,14.5512967 L7.90957212,15.8471209 C7.97159615,15.9068132 8.05280288,15.9366154 8.13400962,15.9366154 C8.21521635,15.9366154 8.29642308,15.9068132 8.35844712,15.8471209 L9.3396875,14.9029451 C9.93636058,15.3316923 10.3714423,15.6314725 10.4183942,15.6636484 C10.4738413,15.7018022 10.5385144,15.7206154 10.6026394,15.7206154 C10.6844856,15.7206154 10.765875,15.6901978 10.8271683,15.6311209 L15.0908413,11.5277363 C15.0909327,11.5276484 15.0911154,11.5275604 15.0912981,11.5274725 C15.0914808,11.5272967 15.0914808,11.5272088 15.0915721,11.527033 L16.2134856,10.4472967 C16.3231923,10.3417143 16.3374423,10.1752967 16.247375,10.0538022 C16.2116587,10.0056264 15.8611635,9.53476923 15.3688077,8.90259341 L16.0112452,7.66074725 L16.4396587,8.07305495 C16.6245433,8.25116484 16.867524,8.34004396 17.1106875,8.34004396 C17.3543077,8.34004396 17.5982019,8.25054945 17.7839087,8.07191209 L18.6825721,7.20712088 C18.8627981,7.03349451 18.9621827,6.80351648 18.9621827,6.55920879 C18.9623654,6.31551648 18.8635288,6.08615385 18.683851,5.91340659 L18.683851,5.91340659 Z M2.07237019,7.64123077 C1.94813942,7.76167033 1.75174519,7.76079121 1.62596154,7.64 L0.727389423,6.77520879 C0.603889423,6.65617582 0.60325,6.46347253 0.726019231,6.34540659 L6.56486538,0.726065934 L6.56504808,0.726065934 C6.62707212,0.66610989 6.707,0.636307692 6.78692788,0.636307692 C6.86749519,0.636307692 6.94842788,0.666725275 7.01145673,0.727296703 L7.91002885,1.59208791 C8.03352885,1.71112088 8.03416827,1.90382418 7.91139904,2.02189011 L2.07237019,7.64123077 L2.07237019,7.64123077 Z M3.19647596,10.4472967 L3.83124038,9.83657143 C4.08764904,10.1547253 4.3569375,10.4815824 4.62677404,10.7988571 L4.09431731,11.3113846 L3.19647596,10.4472967 L3.19647596,10.4472967 Z M5.21632212,12.3912967 L4.54300962,11.7432088 L5.03454327,11.2700659 C5.25450481,11.5185934 5.46816346,11.749978 5.66930769,11.9553407 L5.21632212,12.3912967 L5.21632212,12.3912967 Z M6.56294712,13.6871209 L5.66528846,12.8232088 L6.11827404,12.3872527 C6.39733654,12.6405275 6.7248125,12.9152527 7.07384615,13.1952527 L6.56294712,13.6871209 L6.56294712,13.6871209 Z M8.13391827,15.1991209 L7.01182212,14.1192088 L7.56720673,13.5844396 C7.99388462,13.9151648 8.42823558,14.2393846 8.82769231,14.5315165 L8.13391827,15.1991209 L8.13391827,15.1991209 Z M15.5735144,10.1991209 L14.8666779,10.8792967 L11.9492644,8.0712967 C11.8253077,7.952 11.6244375,7.952 11.5004808,8.0712967 C11.376524,8.19059341 11.376524,8.38391209 11.5004808,8.50320879 L14.4178942,11.3112088 L13.5202356,12.1751209 L10.6027308,9.3672967 C10.478774,9.248 10.2779038,9.248 10.1539471,9.3672967 C10.0299904,9.48659341 10.0299904,9.67991209 10.1539471,9.79920879 L13.0714519,12.607033 L12.1737933,13.4709451 L9.25619712,10.663033 C9.13224038,10.5437363 8.93137019,10.5437363 8.80741346,10.663033 C8.68345673,10.7823297 8.68345673,10.9756484 8.80741346,11.0949451 L11.7250096,13.9028571 L10.5694808,15.0149451 C9.83688462,14.503033 7.44809135,12.8108132 6.33869231,11.7432088 C5.70475,11.1329231 4.85915865,10.1208791 4.15104327,9.23358242 C4.1360625,9.2043956 4.11952885,9.17564835 4.09431731,9.15138462 C4.08911058,9.14637363 4.08225962,9.14479121 4.07687019,9.14021978 C3.57866827,8.51367033 3.15600962,7.95920879 2.93887981,7.67156044 L7.94209135,2.85617582 C8.16250962,3.01151648 8.53922115,3.27947253 9.01212019,3.62435165 C8.50752404,3.93714286 7.97872115,4.32325275 7.48663942,4.79692308 C6.72691346,5.52773626 6.22560577,6.06232967 5.95394231,6.43068132 C5.82039423,6.61178022 5.50771635,7.03595604 5.80641827,7.3229011 C5.87611538,7.38997802 6.00600962,7.51498901 7.24457212,7.62716484 C7.2544375,7.62804396 7.26439423,7.6283956 7.27435096,7.6283956 C7.32084615,7.6283956 7.36706731,7.61854945 7.40936058,7.59947253 C8.06951923,7.30118681 9.29154808,6.84896703 9.75010577,6.89758242 C10.478226,6.97626374 11.5562019,6.39534066 12.1398125,6.07850549 C12.1512308,6.09494505 12.1586298,6.11314286 12.1737019,6.12764835 C13.2827356,7.19498901 15.0415144,9.49424176 15.5735144,10.1991209 L15.5735144,10.1991209 Z M14.941125,8.35903297 C14.2086202,7.43745055 13.3084038,6.35578022 12.6224856,5.69564835 C12.5828413,5.65749451 12.5344279,5.63604396 12.4840962,5.62224176 C12.4778846,5.60123077 12.475601,5.5796044 12.4643654,5.55956044 C12.3813317,5.41098901 12.188774,5.35525275 12.0344904,5.43516484 C11.9822404,5.46232967 11.9150096,5.49872527 11.8359952,5.54162637 C11.3916875,5.78356044 10.3511635,6.34734066 9.82245192,6.29063736 C9.09825962,6.21037363 7.61315385,6.83736264 7.21936058,7.01072527 C6.92230288,6.98145055 6.59391346,6.93881319 6.38820192,6.89978022 C6.52193269,6.6916044 6.89617788,6.22892308 7.93551442,5.22874725 C9.22386058,3.98883516 10.8289952,3.36395604 11.3570673,3.18136264 L15.5380721,7.20518681 L14.941125,8.35903297 L14.941125,8.35903297 Z M18.2336971,6.77520879 L17.335125,7.64 C17.2114423,7.75903297 17.0112115,7.75903297 16.8885337,7.64123077 L11.6930385,2.64105495 C11.6870096,2.63375824 11.6797019,2.62857143 11.673125,2.62189011 L11.0496875,2.02189011 C10.9900385,1.96465934 10.9573365,1.88852747 10.9573365,1.808 C10.9573365,1.72685714 10.9906779,1.6501978 11.0510577,1.592 L11.9496298,0.727208791 C12.0116538,0.667516484 12.0929519,0.637714286 12.1740673,0.637714286 C12.2546346,0.637714286 12.3351106,0.667252747 12.3963125,0.725978022 L18.2351587,6.34531868 C18.2948077,6.40254945 18.3275096,6.47868132 18.3275096,6.55920879 C18.3274183,6.64035165 18.2941683,6.71701099 18.2336971,6.77520879 L18.2336971,6.77520879 Z" id="Shape"></path>
                </g>
            </g>
        </g>
    </g>
</svg>