<?xml version="1.0" encoding="UTF-8"?>
<svg width="37px" height="29px" viewBox="0 0 37 29" version="1.1" xmlns="http://www.w3.org/2000/svg" xmlns:xlink="http://www.w3.org/1999/xlink">
    <!-- Generator: Sketch 41 (35326) - http://www.bohemiancoding.com/sketch -->
    <title>icono-sugeridos</title>
    <desc>Created with Sketch.</desc>
    <defs></defs>
    <g id="Symbols" stroke="none" stroke-width="1" fill="none" fill-rule="evenodd">
        <g id="iso-oultines" transform="translate(0.000000, -1.000000)" fill="#EE4038">
            <g id="icono-sugeridos" transform="translate(0.000000, 1.000000)">
                <path d="M26.2306104,19.0843973 C24.6951104,19.0843973 23.4455896,17.8312107 23.4455896,16.2907307 C23.4455896,14.749864 24.6951104,13.4966773 26.2306104,13.4966773 C27.7661104,13.4966773 29.0156313,14.749864 29.0156313,16.2907307 C29.0156313,17.8312107 27.7661104,19.0843973 26.2306104,19.0843973 M10.6293292,19.0843973 C9.09382917,19.0843973 7.84469375,17.8312107 7.84469375,16.2907307 C7.84469375,14.749864 9.09382917,13.4966773 10.6293292,13.4966773 C12.1652146,13.4966773 13.41435,14.749864 13.41435,16.2907307 C13.41435,17.8312107 12.1652146,19.0843973 10.6293292,19.0843973 M31.6457146,15.753264 L30.5580687,15.753264 C30.2925167,13.592184 28.4552354,11.912504 26.2306104,11.912504 C24.1000271,11.912504 22.3244125,13.452984 21.9443917,15.4814373 C21.1423396,15.168624 19.9664333,14.8654773 18.4301625,14.8654773 C16.8938917,14.8654773 15.7176,15.168624 14.9155479,15.4814373 C14.5359125,13.452984 12.7599125,11.912504 10.6293292,11.912504 C8.40470417,11.912504 6.5670375,13.5925707 6.30187083,15.7536507 C6.29994375,15.7536507 6.29840208,15.753264 6.296475,15.753264 L5.20458958,15.753264 C4.77870417,15.753264 4.43375625,16.0993307 4.43375625,16.5265973 C4.43375625,16.9534773 4.77870417,17.2999307 5.20458958,17.2999307 L6.296475,17.2999307 C6.32692292,17.2999307 6.35544375,17.2945173 6.38512083,17.2910373 C6.83798542,19.2235973 8.56696458,20.6685707 10.6293292,20.6685707 C12.7290792,20.6685707 14.4861937,19.1733307 14.9001312,17.1885707 C15.2816937,16.9766773 16.4587562,16.4496507 18.4301625,16.4496507 C20.3803708,16.4496507 21.5767042,16.987504 21.96135,17.1943707 C22.3776,19.1760373 24.1331729,20.6685707 26.2306104,20.6685707 C28.292975,20.6685707 30.0215687,19.2243707 30.4748187,17.2918107 C30.5010271,17.2945173 30.5264646,17.2999307 30.5538292,17.2999307 L31.6457146,17.2999307 C32.0712146,17.2999307 32.4165479,16.9534773 32.4165479,16.5265973 C32.4165479,16.0993307 32.0712146,15.753264 31.6457146,15.753264" id="Fill-1"></path>
                <path d="M30.273824,22.580328 L29.4629073,22.7106347 L29.4629073,25.6075413 C29.4629073,26.3986613 28.943751,26.995288 28.2550115,26.995288 C27.5666573,26.995288 27.0471156,26.3986613 27.0471156,25.6075413 L27.0471156,22.5950213 L9.80164687,22.5950213 L9.80164687,25.6075413 C9.80164687,26.346848 9.14528229,26.995288 8.39641771,26.995288 C7.64793854,26.995288 6.99118854,26.346848 6.99118854,25.6075413 L6.99118854,22.7210747 L6.22420937,22.560608 C4.61933437,22.2257547 1.92719896,21.044488 1.92719896,16.902128 C1.92719896,13.6444613 3.20986562,12.463968 5.73665729,11.313248 C7.26329271,10.618408 7.67106354,8.99943467 8.21064687,6.41534133 C8.86624062,3.27367467 10.2140427,1.933488 12.717324,1.933488 L24.115251,1.933488 C27.112251,1.933488 28.150949,4.31767467 28.4943552,6.31751467 C28.5521677,6.65275467 28.6011156,6.96866133 28.6465948,7.263688 C28.9102198,8.96850133 29.138001,10.4405413 30.5968031,10.9834213 C32.688074,11.7625547 34.9231052,13.6908613 34.9231052,16.7667947 C34.9231052,19.6544213 32.9243344,22.1538347 30.273824,22.580328 M31.2674281,9.17111467 L31.2674281,9.17111467 C30.9051365,9.036168 30.7767927,8.42794133 30.5509385,6.96750133 C30.5035323,6.66203467 30.4530427,6.335688 30.3936885,5.98923467 C29.7400219,2.182888 27.4514177,0.000154666667 24.115251,0.000154666667 L12.717324,0.000154666667 C9.30869896,0.000154666667 7.15768854,2.025128 6.32441771,6.019008 C5.85228229,8.28178133 5.55551146,9.272808 4.94038646,9.55314133 C1.89019896,10.9416613 0.000115625,12.6557547 0.000115625,16.902128 C0.000115625,20.5820347 1.87670937,23.277488 5.06410521,24.256528 L5.06410521,25.6075413 C5.06410521,27.4078613 6.59035521,28.9286213 8.39641771,28.9286213 C10.2028656,28.9286213 11.7287302,27.4078613 11.7287302,25.6075413 L11.7287302,24.5283547 L25.1200323,24.5283547 L25.1200323,25.6075413 C25.1200323,27.4701147 26.497126,28.9286213 28.2550115,28.9286213 C30.0128969,28.9286213 31.3899906,27.4701147 31.3899906,25.6075413 L31.3899906,24.3079547 C34.553876,23.3985147 36.8498031,20.2989947 36.8498031,16.7667947 C36.8498031,13.4155547 34.6587094,10.433968 31.2674281,9.17111467" id="Fill-3"></path>
            </g>
        </g>
    </g>
</svg>