<?xml version="1.0" encoding="UTF-8" standalone="no"?>
<svg
   xmlns:dc="http://purl.org/dc/elements/1.1/"
   xmlns:cc="http://creativecommons.org/ns#"
   xmlns:rdf="http://www.w3.org/1999/02/22-rdf-syntax-ns#"
   xmlns:svg="http://www.w3.org/2000/svg"
   xmlns="http://www.w3.org/2000/svg"
   xmlns:sodipodi="http://sodipodi.sourceforge.net/DTD/sodipodi-0.dtd"
   xmlns:inkscape="http://www.inkscape.org/namespaces/inkscape"
   width="25px"
   height="24px"
   viewBox="0 0 25 24"
   version="1.1"
   id="svg17"
   sodipodi:docname="icono-ingresar.svg"
   inkscape:version="0.92.1 unknown">
  <metadata
     id="metadata21">
    <rdf:RDF>
      <cc:Work
         rdf:about="">
        <dc:format>image/svg+xml</dc:format>
        <dc:type
           rdf:resource="http://purl.org/dc/dcmitype/StillImage" />
      </cc:Work>
    </rdf:RDF>
  </metadata>
  <sodipodi:namedview
     pagecolor="#ffffff"
     bordercolor="#666666"
     borderopacity="1"
     objecttolerance="10"
     gridtolerance="10"
     guidetolerance="10"
     inkscape:pageopacity="0"
     inkscape:pageshadow="2"
     inkscape:window-width="688"
     inkscape:window-height="480"
     id="namedview19"
     showgrid="false"
     inkscape:zoom="9.8333333"
     inkscape:cx="12.5"
     inkscape:cy="12"
     inkscape:window-x="0"
     inkscape:window-y="0"
     inkscape:window-maximized="0"
     inkscape:current-layer="svg17" />
  <!-- Generator: Sketch 41 (35326) - http://www.bohemiancoding.com/sketch -->
  <title
     id="title2">icono-ingresar</title>
  <desc
     id="desc4">Created with Sketch.</desc>
  <defs
     id="defs6" />
  <g
     id="Symbols"
     stroke="none"
     stroke-width="1"
     fill="none"
     fill-rule="evenodd"
     style="fill:#1a1a1a">
    <g
       id="Header&amp;subheader"
       transform="translate(-1151.000000, -92.000000)"
       fill="#EF4039"
       style="fill:#1a1a1a">
      <g
         id="Subheader"
         transform="translate(0.000000, 80.000000)"
         style="fill:#1a1a1a">
        <g
           id="ingresar"
           transform="translate(1151.000000, 12.000000)"
           style="fill:#1a1a1a">
          <g
             id="icono-ingresar"
             transform="translate(0.448739, 0.793276)"
             style="fill:#1a1a1a">
            <g
               id="Group"
               style="fill:#1a1a1a">
              <path
                 d="M11.8624483,12.9380417 C15.3457121,12.9380417 18.1710261,10.0585385 18.1710261,6.50846609 C18.1710261,2.95839368 15.3457121,0.0986131226 11.8624483,0.0986131226 C8.37918455,0.0986131226 5.55387059,2.9781163 5.55387059,6.50846609 C5.55387059,10.0388159 8.37918455,12.9380417 11.8624483,12.9380417 L11.8624483,12.9380417 Z M11.8624483,1.77503621 C14.4168418,1.77503621 16.5068,3.90507966 16.5068,6.50846609 C16.5068,9.11185253 14.4168418,11.241896 11.8624483,11.241896 C9.30805489,11.241896 7.21809662,9.11185253 7.21809662,6.50846609 C7.21809662,3.90507966 9.30805489,1.77503621 11.8624483,1.77503621 L11.8624483,1.77503621 Z"
                 id="Shape"
                 style="fill:#1a1a1a" />
              <path
                 d="M0.948221808,22.9768576 L22.8540807,22.9768576 C23.3185159,22.9768576 23.6861937,22.6021277 23.6861937,22.1287847 C23.6861937,17.6911942 20.1448755,14.0622313 15.7714444,14.0622313 L8.03085817,14.0622313 C3.67677844,14.0622313 0.116108793,17.6714716 0.116108793,22.1287847 C0.116108793,22.6021277 0.483786637,22.9768576 0.948221808,22.9768576 L0.948221808,22.9768576 Z M8.03085817,15.758377 L15.7714444,15.758377 C18.9450847,15.758377 21.5575325,18.1645372 21.9639133,21.2807119 L1.83838922,21.2807119 C2.24476999,18.1842598 4.85721783,15.758377 8.03085817,15.758377 L8.03085817,15.758377 Z"
                 id="path9"
                 style="fill:#1a1a1a" />
            </g>
          </g>
        </g>
      </g>
    </g>
  </g>
</svg>
