<?xml version="1.0" encoding="UTF-8"?>
<svg width="38px" height="29px" viewBox="0 0 38 29" version="1.1" xmlns="http://www.w3.org/2000/svg" xmlns:xlink="http://www.w3.org/1999/xlink">
    <!-- Generator: Sketch 41 (35326) - http://www.bohemiancoding.com/sketch -->
    <title>logout</title>
    <desc>Created with Sketch.</desc>
    <defs></defs>
    <g id="Symbols" stroke="none" stroke-width="1" fill="none" fill-rule="evenodd">
        <g id="menu-perfil" transform="translate(-36.000000, -349.000000)" fill="#8994A0">
            <g id="logout" transform="translate(36.000000, 349.000000)">
                <g id="Capa_1">
                    <g id="Group">
                        <path d="M0,4.88890374 L0,24.1343583 C0,26.7862299 2.1592668,28.9495989 4.80610998,28.9495989 L20.3311609,28.9495989 C22.9780041,28.9495989 25.1372709,26.7862299 25.1372709,24.1343583 L25.1372709,21.017246 C25.1372709,20.4899733 24.711609,20.0635027 24.185336,20.0635027 C23.6590631,20.0635027 23.2334012,20.4899733 23.2334012,21.017246 L23.2334012,24.1343583 C23.2334012,25.7394385 21.9254582,27.0498663 20.3234216,27.0498663 L4.80610998,27.0498663 C3.20407332,27.0498663 1.89613035,25.7394385 1.89613035,24.1343583 L1.89613035,4.88890374 C1.89613035,3.28382353 3.20407332,1.97339572 4.80610998,1.97339572 L20.3311609,1.97339572 C21.9331976,1.97339572 23.2411405,3.28382353 23.2411405,4.88890374 L23.2411405,8.00601604 C23.2411405,8.53328877 23.6668024,8.95975936 24.1930754,8.95975936 C24.7193483,8.95975936 25.1450102,8.53328877 25.1450102,8.00601604 L25.1450102,4.88890374 C25.1450102,2.23703209 22.9857434,0.0736631016 20.3389002,0.0736631016 L4.80610998,0.0736631016 C2.1592668,0.0736631016 0,2.22927807 0,4.88890374 Z" id="Shape"></path>
                        <path d="M29.8272912,21.6840909 C30.0130346,21.8701872 30.2529532,21.9632353 30.500611,21.9632353 C30.7482688,21.9632353 30.9881874,21.8701872 31.1739308,21.6840909 L37.6672098,15.1784759 C38.0386965,14.8062834 38.0386965,14.2092246 37.6672098,13.8370321 L31.1739308,7.33141711 C30.802444,6.9592246 30.2065173,6.9592246 29.8350305,7.33141711 C29.4635438,7.70360963 29.4635438,8.30066845 29.8350305,8.67286096 L34.7107943,13.5578877 L16.9181263,13.5578877 C16.3918534,13.5578877 15.9661914,13.9843583 15.9661914,14.511631 C15.9661914,15.0389037 16.3918534,15.4653743 16.9181263,15.4653743 L34.703055,15.4653743 L29.8272912,20.3504011 C29.4558045,20.7148396 29.4558045,21.3196524 29.8272912,21.6840909 Z" id="Shape"></path>
                    </g>
                </g>
            </g>
        </g>
    </g>
</svg>