<?xml version="1.0" encoding="UTF-8" standalone="no"?>
<svg
   xmlns:dc="http://purl.org/dc/elements/1.1/"
   xmlns:cc="http://creativecommons.org/ns#"
   xmlns:rdf="http://www.w3.org/1999/02/22-rdf-syntax-ns#"
   xmlns:svg="http://www.w3.org/2000/svg"
   xmlns="http://www.w3.org/2000/svg"
   xmlns:sodipodi="http://sodipodi.sourceforge.net/DTD/sodipodi-0.dtd"
   xmlns:inkscape="http://www.inkscape.org/namespaces/inkscape"
   width="19px"
   height="21px"
   viewBox="0 0 19 21"
   version="1.1"
   id="svg15"
   sodipodi:docname="magnifier.svg"
   inkscape:version="0.92.1 unknown">
  <metadata
     id="metadata19">
    <rdf:RDF>
      <cc:Work
         rdf:about="">
        <dc:format>image/svg+xml</dc:format>
        <dc:type
           rdf:resource="http://purl.org/dc/dcmitype/StillImage" />
      </cc:Work>
    </rdf:RDF>
  </metadata>
  <sodipodi:namedview
     pagecolor="#ffffff"
     bordercolor="#666666"
     borderopacity="1"
     objecttolerance="10"
     gridtolerance="10"
     guidetolerance="10"
     inkscape:pageopacity="0"
     inkscape:pageshadow="2"
     inkscape:window-width="1920"
     inkscape:window-height="1055"
     id="namedview17"
     showgrid="false"
     inkscape:zoom="11.238095"
     inkscape:cx="-1.2224576"
     inkscape:cy="10.5"
     inkscape:window-x="1366"
     inkscape:window-y="0"
     inkscape:window-maximized="1"
     inkscape:current-layer="svg15" />
  <!-- Generator: Sketch 41 (35326) - http://www.bohemiancoding.com/sketch -->
  <title
     id="title2">magnifier</title>
  <desc
     id="desc4">Created with Sketch.</desc>
  <defs
     id="defs6" />
  <g
     id="Symbols"
     stroke="none"
     stroke-width="1"
     fill="none"
     fill-rule="evenodd"
     style="fill:#000080;fill-opacity:1">
    <g
       id="Buscador"
       transform="translate(-13.000000, -22.000000)"
       fill="#EF4039"
       style="fill:#000080;fill-opacity:1">
      <g
         transform="translate(0.000000, 14.000000)"
         id="magnifier"
         style="fill:#000080;fill-opacity:1">
        <g
           transform="translate(13.000000, 8.000000)"
           id="g10"
           style="fill:#000080;fill-opacity:1">
          <path
             d="M15.5,8 C15.5,3.85786438 12.1421356,0.5 8,0.5 C3.85786438,0.5 0.5,3.85786438 0.5,8 C0.5,12.1421356 3.85786438,15.5 8,15.5 C12.1421356,15.5 15.5,12.1421356 15.5,8 Z M1.5,8 C1.5,4.41014913 4.41014913,1.5 8,1.5 C11.5898509,1.5 14.5,4.41014913 14.5,8 C14.5,11.5898509 11.5898509,14.5 8,14.5 C4.41014913,14.5 1.5,11.5898509 1.5,8 Z"
             id="Oval"
             style="fill:#000080;fill-opacity:1" />
          <path
             d="M17.2317787,20.6401844 C17.5853428,21.0644613 18.2159075,21.1217854 18.6401844,20.7682213 C19.0644613,20.4146572 19.1217854,19.7840925 18.7682213,19.3598156 L13.7682213,13.3598156 C13.4146572,12.9355387 12.7840925,12.8782146 12.3598156,13.2317787 C11.9355387,13.5853428 11.8782146,14.2159075 12.2317787,14.6401844 L17.2317787,20.6401844 Z"
             id="Line"
             style="fill:#000080;fill-opacity:1" />
        </g>
      </g>
    </g>
  </g>
</svg>
