<?xml version="1.0" encoding="UTF-8"?>
<svg width="31px" height="26px" viewBox="0 0 31 26" version="1.1" xmlns="http://www.w3.org/2000/svg" xmlns:xlink="http://www.w3.org/1999/xlink">
    <!-- Generator: Sketch 41 (35326) - http://www.bohemiancoding.com/sketch -->
    <title>mensajes-active</title>
    <desc>Created with Sketch.</desc>
    <defs></defs>
    <g id="Symbols" stroke="none" stroke-width="1" fill="none" fill-rule="evenodd">
        <g id="speech-bubble-copy" transform="translate(0.000000, -1.000000)" fill="#FFFFFF">
            <g id="mensajes-active">
                <g id="Group" transform="translate(0.500000, 0.807692)">
                    <path d="M7.43589744,9.01153846 L22.5641026,9.01153846 C23.1538462,9.01153846 23.6153846,8.55461538 23.6153846,7.97076923 C23.6153846,7.38692308 23.1538462,6.93 22.5641026,6.93 L7.43589744,6.93 C6.84615385,6.93 6.38461538,7.38692308 6.38461538,7.97076923 C6.38461538,8.55461538 6.84615385,9.01153846 7.43589744,9.01153846 Z" id="Shape"></path>
                    <path d="M7.43589744,14.0376923 L22.5641026,14.0376923 C23.1538462,14.0376923 23.6153846,13.5807692 23.6153846,12.9969231 C23.6153846,12.4130769 23.1538462,11.9561538 22.5641026,11.9561538 L7.43589744,11.9561538 C6.84615385,11.9561538 6.38461538,12.4130769 6.38461538,12.9969231 C6.38461538,13.5807692 6.84615385,14.0376923 7.43589744,14.0376923 Z" id="Shape"></path>
                    <path d="M1.15384615,20.7646154 L4.53846154,20.7646154 L4.53846154,24.1915385 C4.53846154,24.5976923 4.76923077,24.9530769 5.12820513,25.1307692 C5.28205128,25.2069231 5.43589744,25.2323077 5.58974359,25.2323077 C5.82051282,25.2323077 6.05128205,25.1561538 6.23076923,25.0292308 L11.8717949,20.79 L28.8461538,20.79 C29.4358974,20.79 29.8974359,20.3330769 29.8974359,19.7492308 L29.8974359,1.24384615 C29.8974359,0.66 29.4358974,0.203076923 28.8461538,0.203076923 L1.15384615,0.203076923 C0.564102564,0.203076923 0.102564103,0.66 0.102564103,1.24384615 L0.102564103,19.7238462 C0.102564103,20.3076923 0.58974359,20.7646154 1.15384615,20.7646154 Z M2.20512821,2.28461538 L27.7692308,2.28461538 L27.7692308,18.6830769 L11.5128205,18.6830769 C11.2820513,18.6830769 11.0512821,18.7592308 10.8717949,18.8861538 L6.64102564,22.0846154 L6.64102564,19.7238462 C6.64102564,19.14 6.17948718,18.6830769 5.58974359,18.6830769 L2.20512821,18.6830769 L2.20512821,2.28461538 L2.20512821,2.28461538 Z" id="Shape"></path>
                </g>
            </g>
        </g>
    </g>
</svg>