<?xml version="1.0" encoding="UTF-8"?>
<svg width="15px" height="17px" viewBox="0 0 15 17" version="1.1" xmlns="http://www.w3.org/2000/svg" xmlns:xlink="http://www.w3.org/1999/xlink">
    <!-- Generator: Sketch 41 (35326) - http://www.bohemiancoding.com/sketch -->
    <title>money-bag</title>
    <desc>Created with Sketch.</desc>
    <defs></defs>
    <g id="Diseños-finales" stroke="none" stroke-width="1" fill="none" fill-rule="evenodd">
        <g id="02-Perfil" transform="translate(-662.000000, -1375.000000)" fill="#000000">
            <g id="financiamiento" transform="translate(663.000000, 1372.000000)">
                <g id="money-bag" transform="translate(0.000000, 4.000000)">
                    <g id="Layer_1">
                        <g id="Group">
                            <path d="M8.73401829,3.75165789 C8.80694512,3.75339474 8.8839939,3.75734211 8.95375,3.75734211 C11.3377439,3.75734211 11.8987256,2.79473684 11.9605549,2.67165789 C12.027378,2.53839474 11.9737134,2.37915789 11.8415732,2.30952632 C11.7091951,2.23989474 11.5439207,2.29073684 11.4708354,2.42084211 C11.4653659,2.43039474 10.9327622,3.32242105 8.46918293,3.19460526 C8.7960061,2.81147368 9.39947561,2.23736842 10.0857012,2.23736842 C10.2378171,2.23736842 10.3611585,2.11452632 10.3611585,1.96302632 C10.3611585,1.81152632 10.2378171,1.68868421 10.0857012,1.68868421 C9.35667073,1.68868421 8.73354268,2.14002632 8.31381707,2.55497368 L8.80948171,0.333868421 C8.83365854,0.225552632 8.78982317,0.113289474 8.6985061,0.0496578947 C8.60703049,-0.0139736842 8.48630488,-0.0165 8.39229268,0.0432631579 C7.75648171,0.448026316 6.59306098,1.09010526 6.1780122,1.09010526 C5.73585366,1.09010526 4.98066463,0.473684211 4.6087378,0.0851842105 C4.52336585,-0.00418421053 4.38876829,-0.0257368421 4.27969512,0.0325263158 C4.17062195,0.0903947368 4.11362805,0.213710526 4.1405,0.333868421 L4.82514024,3.40271053 C2.05273171,4.72010526 0.00237804878,9.27410526 0.00237804878,14.6756053 C0.00237804878,14.8271053 0.125719512,14.9499474 0.277835366,14.9499474 L12.6719085,14.9499474 C12.8240244,14.9499474 12.9473659,14.8271053 12.9473659,14.6756053 C12.9472866,9.67807895 11.192128,5.40631579 8.73401829,3.75165789 L8.73401829,3.75165789 Z M6.17793293,1.63871053 C6.656,1.63871053 7.54594512,1.17765789 8.13197561,0.840947368 L7.60721951,3.19278947 C7.5610061,3.17834211 7.51431707,3.16744737 7.46786585,3.15481579 C7.46160366,3.15307895 7.45542073,3.15142105 7.44915854,3.14968421 C7.36085366,3.12607895 7.27223171,3.10571053 7.18321341,3.08857895 C7.15697561,3.08344737 7.13081707,3.078 7.1045,3.07342105 C7.03403049,3.06142105 6.96348171,3.05226316 6.89277439,3.04428947 C6.85528049,3.03994737 6.81786585,3.0345 6.78021341,3.03134211 C6.71006098,3.02557895 6.63982927,3.02352632 6.56959756,3.02171053 C6.53796951,3.02084211 6.50665854,3.01736842 6.47487195,3.01736842 C6.4430061,3.01736842 6.41161585,3.02084211 6.37982927,3.02171053 C6.30967683,3.02352632 6.23960366,3.0255 6.16960976,3.03126316 C6.13171951,3.0345 6.09414634,3.03994737 6.05641463,3.04428947 C5.98602439,3.05226316 5.91587195,3.06126316 5.84571951,3.07326316 C5.81884756,3.07792105 5.79221341,3.08344737 5.7655,3.08873684 C5.67743293,3.10571053 5.58968293,3.12584211 5.50225,3.14913158 C5.49495732,3.15110526 5.48758537,3.15307895 5.48029268,3.15513158 C5.43431707,3.16784211 5.38810366,3.17857895 5.34236585,3.19294737 L4.86358537,1.04684211 C5.24930488,1.34297368 5.74314634,1.63871053 6.17793293,1.63871053 L6.17793293,1.63871053 Z M0.554957317,14.4012632 C0.622573171,9.19144737 2.61181098,4.86157895 5.24018902,3.81126316 C5.24161585,3.81071053 5.24320122,3.81094737 5.24454878,3.81039474 C6.04904268,3.48623684 6.90070122,3.48639474 7.70495732,3.81023684 C7.70614634,3.81071053 7.70741463,3.81039474 7.70868293,3.81086842 C10.3375366,4.86063158 12.3270915,9.19089474 12.3947073,14.4012632 L0.554957317,14.4012632 L0.554957317,14.4012632 Z" id="Shape" stroke="#000000" stroke-width="0.3"></path>
                            <path d="M6.33710366,7.95497368 C6.64085976,7.95497368 6.88793902,8.20105263 6.88793902,8.50357895 C6.88793902,8.65507895 7.01128049,8.77792105 7.16339634,8.77792105 C7.3155122,8.77792105 7.43885366,8.65507895 7.43885366,8.50357895 C7.43885366,7.99381579 7.08642683,7.56805263 6.61256098,7.44528947 L6.61256098,7.13210526 C6.61256098,6.98060526 6.48921951,6.85776316 6.33710366,6.85776316 C6.1849878,6.85776316 6.06164634,6.98060526 6.06164634,7.13210526 L6.06164634,7.44536842 C5.58785976,7.56805263 5.23535366,7.99389474 5.23535366,8.50365789 C5.23535366,9.10871053 5.72959146,9.60086842 6.33702439,9.60086842 C6.64078049,9.60086842 6.88785976,9.84694737 6.88785976,10.1494737 C6.88785976,10.452 6.64078049,10.6980789 6.33702439,10.6980789 C6.03326829,10.6980789 5.78618902,10.452 5.78618902,10.1494737 C5.78618902,9.99797368 5.66284756,9.87513158 5.51073171,9.87513158 C5.35861585,9.87513158 5.23527439,9.99797368 5.23527439,10.1494737 C5.23527439,10.6592368 5.58770122,11.085 6.06156707,11.2077632 L6.06156707,11.5210263 C6.06156707,11.6725263 6.18490854,11.7953684 6.33702439,11.7953684 C6.48914024,11.7953684 6.61248171,11.6725263 6.61248171,11.5210263 L6.61248171,11.2077632 C7.08626829,11.0850789 7.43877439,10.6592368 7.43877439,10.1494737 C7.43877439,9.54442105 6.94453659,9.05226316 6.33710366,9.05226316 C6.03334756,9.05226316 5.78626829,8.80618421 5.78626829,8.50365789 C5.78626829,8.20105263 6.03334756,7.95497368 6.33710366,7.95497368 L6.33710366,7.95497368 Z" id="Shape"></path>
                        </g>
                    </g>
                </g>
            </g>
        </g>
    </g>
</svg>