<?xml version="1.0" encoding="UTF-8"?>
<svg width="17px" height="16px" viewBox="0 0 17 16" version="1.1" xmlns="http://www.w3.org/2000/svg" xmlns:xlink="http://www.w3.org/1999/xlink">
    <!-- Generator: Sketch 41 (35326) - http://www.bohemiancoding.com/sketch -->
    <title>name</title>
    <desc>Created with Sketch.</desc>
    <defs></defs>
    <g id="Diseños-finales" stroke="none" stroke-width="1" fill="none" fill-rule="evenodd">
        <g id="10-perfil-tus-datos" transform="translate(-339.000000, -238.000000)" fill="#EF4039">
            <g id="card-profile" transform="translate(153.000000, 179.000000)">
                <g id="nombre" transform="translate(175.000000, 32.000000)">
                    <g id="name" transform="translate(11.000000, 27.000000)">
                        <g id="Group">
                            <path d="M8.47235772,8.97094017 C10.9601626,8.97094017 12.9780488,6.97435897 12.9780488,4.51282051 C12.9780488,2.05128205 10.9601626,0.0683760684 8.47235772,0.0683760684 C5.98455285,0.0683760684 3.96666667,2.06495726 3.96666667,4.51282051 C3.96666667,6.96068376 5.98455285,8.97094017 8.47235772,8.97094017 L8.47235772,8.97094017 Z M8.47235772,1.23076923 C10.296748,1.23076923 11.7894309,2.70769231 11.7894309,4.51282051 C11.7894309,6.31794872 10.296748,7.79487179 8.47235772,7.79487179 C6.64796748,7.79487179 5.15528455,6.31794872 5.15528455,4.51282051 C5.15528455,2.70769231 6.64796748,1.23076923 8.47235772,1.23076923 L8.47235772,1.23076923 Z" id="Shape"></path>
                            <path d="M0.677235772,15.9316239 L16.3227642,15.9316239 C16.6544715,15.9316239 16.9170732,15.6717949 16.9170732,15.3435897 C16.9170732,12.2666667 14.3878049,9.75042735 11.2642276,9.75042735 L5.73577236,9.75042735 C2.62601626,9.75042735 0.0829268293,12.2529915 0.0829268293,15.3435897 C0.0829268293,15.6717949 0.345528455,15.9316239 0.677235772,15.9316239 L0.677235772,15.9316239 Z M5.73577236,10.9264957 L11.2642276,10.9264957 C13.5308943,10.9264957 15.396748,12.5948718 15.6869919,14.7555556 L1.31300813,14.7555556 C1.60325203,12.608547 3.46910569,10.9264957 5.73577236,10.9264957 L5.73577236,10.9264957 Z" id="Shape"></path>
                        </g>
                    </g>
                </g>
            </g>
        </g>
    </g>
</svg>