<?xml version="1.0" encoding="UTF-8"?>
<svg width="16px" height="18px" viewBox="0 0 16 18" version="1.1" xmlns="http://www.w3.org/2000/svg" xmlns:xlink="http://www.w3.org/1999/xlink">
    <!-- Generator: Sketch 41 (35326) - http://www.bohemiancoding.com/sketch -->
    <title>new-toggle</title>
    <desc>Created with Sketch.</desc>
    <defs></defs>
    <g id="Symbols" stroke="none" stroke-width="1" fill="none" fill-rule="evenodd">
        <g id="toggle-active-used" transform="translate(-444.000000, -11.000000)" fill="#8994A0">
            <g id="toggle">
                <g id="nuevo" transform="translate(444.000000, 11.000000)">
                    <g id="new-toggle">
                        <path d="M12.9656348,3.319875 C13.137913,3.00083203 13.2359652,2.63524219 13.2359652,2.24687109 C13.236,1.00792969 12.2387478,0 11.0130087,0 C10.1064,0 9.17874783,0.473484375 8.46803478,1.29905859 C8.29213913,1.50335156 8.13547826,1.72290234 8,1.95155859 C7.86452174,1.72290234 7.70786087,1.50335156 7.53196522,1.29905859 C6.82125217,0.473484375 5.89363478,0 4.9869913,0 C3.76125217,0 2.764,1.00796484 2.764,2.24687109 C2.764,2.63520703 2.86201739,3.00083203 3.03433043,3.319875 L0.00695652174,3.319875 L0.00695652174,9.85580859 L1.04998261,9.85580859 L1.04998261,18 L14.9500522,18 L14.9500522,9.85580859 L15.9930435,9.85580859 L15.9930435,3.319875 L12.9656348,3.319875 Z M4.9869913,1.17390234 C6.04086957,1.17390234 7.04285217,2.2635 7.33443478,3.31983984 L4.9869913,3.31983984 C4.40166957,3.31983984 3.92542609,2.83855078 3.92542609,2.24683594 C3.92546087,1.65522656 4.40166957,1.17390234 4.9869913,1.17390234 Z M7.41926957,16.8260977 L2.2114087,16.8260977 L2.2114087,9.85580859 L7.41930435,9.85580859 L7.41930435,16.8260977 L7.41926957,16.8260977 Z M7.41926957,8.68187109 L1.16838261,8.68187109 L1.16838261,4.49377734 L7.41926957,4.49377734 L7.41926957,8.68187109 Z M11.0130087,1.17390234 C11.5983304,1.17390234 12.0745739,1.65526172 12.0745739,2.24687109 C12.0745739,2.83851563 11.5983304,3.319875 11.0130087,3.319875 L8.66556522,3.319875 C8.95714783,2.2635 9.95909565,1.17390234 11.0130087,1.17390234 Z M13.7885913,16.8260977 L13.7885913,16.8260977 L8.58073043,16.8260977 L8.58073043,9.85580859 L13.7886261,9.85580859 L13.7886261,16.8260977 L13.7885913,16.8260977 Z M14.8316174,8.68190625 L8.58073043,8.68190625 L8.58073043,4.49377734 L14.8316174,4.49377734 L14.8316174,8.68190625 Z" id="Shape"></path>
                    </g>
                </g>
            </g>
        </g>
    </g>
</svg>