<?xml version="1.0" encoding="UTF-8"?>
<svg width="16px" height="16px" viewBox="0 0 16 16" version="1.1" xmlns="http://www.w3.org/2000/svg" xmlns:xlink="http://www.w3.org/1999/xlink">
    <!-- Generator: Sketch 41 (35326) - http://www.bohemiancoding.com/sketch -->
    <title>photo-camera</title>
    <desc>Created with Sketch.</desc>
    <defs></defs>
    <g id="Diseños-finales" stroke="none" stroke-width="1" fill="none" fill-rule="evenodd">
        <g id="08-subi-tu-foto-(sólo-cuando-no-hizo-login-con-fb-o-google)" transform="translate(-177.000000, -259.000000)" fill="#8994A0">
            <g id="foto" transform="translate(166.000000, 249.000000)">
                <g id="photo-camera" transform="translate(11.000000, 10.000000)">
                    <g id="Group">
                        <g>
                            <path d="M0.615384615,15.9452991 L15.3709402,15.9452991 C15.6854701,15.9452991 15.9316239,15.6991453 15.9316239,15.3846154 L15.9316239,8 L15.9316239,0.615384615 C15.9316239,0.300854701 15.6854701,0.0547008547 15.3709402,0.0547008547 L0.615384615,0.0547008547 C0.300854701,0.0547008547 0.0547008547,0.300854701 0.0547008547,0.615384615 L0.0547008547,8 L0.0547008547,15.3846154 C0.0547008547,15.6854701 0.314529915,15.9452991 0.615384615,15.9452991 L0.615384615,15.9452991 Z M5.03247863,1.17606838 L14.8102564,1.17606838 L14.8102564,7.43931624 L12.034188,7.43931624 C11.7606838,5.45641026 10.0512821,3.91111111 8,3.91111111 C6.83760684,3.91111111 5.78461538,4.4034188 5.03247863,5.1965812 L5.03247863,1.17606838 L5.03247863,1.17606838 Z M8,5.03247863 C9.62735043,5.03247863 10.9675214,6.35897436 10.9675214,8 C10.9675214,9.64102564 9.64102564,10.9675214 8,10.9675214 C6.35897436,10.9675214 5.03247863,9.64102564 5.03247863,8 C5.03247863,6.35897436 6.37264957,5.03247863 8,5.03247863 L8,5.03247863 Z M1.17606838,1.17606838 L3.91111111,1.17606838 L3.91111111,7.43931624 L1.17606838,7.43931624 L1.17606838,1.17606838 L1.17606838,1.17606838 Z M1.17606838,8.56068376 L3.96581197,8.56068376 C4.23931624,10.5435897 5.94871795,12.0888889 8,12.0888889 C10.0512821,12.0888889 11.7606838,10.5435897 12.034188,8.56068376 L14.8102564,8.56068376 L14.8102564,14.8239316 L1.17606838,14.8239316 L1.17606838,8.56068376 L1.17606838,8.56068376 Z" id="Shape"></path>
                            <path d="M10.9811966,3.70598291 L12.4307692,3.70598291 C12.7452991,3.70598291 12.991453,3.45982906 12.991453,3.14529915 C12.991453,2.83076923 12.7452991,2.58461538 12.4307692,2.58461538 L10.9811966,2.58461538 C10.6666667,2.58461538 10.4205128,2.83076923 10.4205128,3.14529915 C10.4205128,3.45982906 10.6666667,3.70598291 10.9811966,3.70598291 L10.9811966,3.70598291 Z" id="Shape"></path>
                            <path d="M8,10.1196581 C9.17606838,10.1196581 10.1196581,9.16239316 10.1196581,8 C10.1196581,6.83760684 9.17606838,5.88034188 8,5.88034188 C6.82393162,5.88034188 5.88034188,6.82393162 5.88034188,8 C5.88034188,9.17606838 6.82393162,10.1196581 8,10.1196581 L8,10.1196581 Z M8,6.98803419 C8.56068376,6.98803419 9.01196581,7.43931624 9.01196581,8 C9.01196581,8.56068376 8.56068376,9.01196581 8,9.01196581 C7.43931624,9.01196581 6.98803419,8.56068376 6.98803419,8 C6.98803419,7.43931624 7.43931624,6.98803419 8,6.98803419 L8,6.98803419 Z" id="Shape"></path>
                        </g>
                    </g>
                </g>
            </g>
        </g>
    </g>
</svg>