<?xml version="1.0" encoding="UTF-8"?>
<svg width="31px" height="29px" viewBox="0 0 31 29" version="1.1" xmlns="http://www.w3.org/2000/svg" xmlns:xlink="http://www.w3.org/1999/xlink">
    <!-- Generator: Sketch 41 (35326) - http://www.bohemiancoding.com/sketch -->
    <title>profile</title>
    <desc>Created with Sketch.</desc>
    <defs></defs>
    <g id="Symbols" stroke="none" stroke-width="1" fill="none" fill-rule="evenodd">
        <g id="profile" fill="#8994A0">
            <g id="perfil">
                <g>
                    <g transform="translate(0.500000, 0.000000)" id="Shape">
                        <path d="M14.9512195,16.2404951 C19.3414634,16.2404951 22.902439,12.6259947 22.902439,8.16976127 C22.902439,3.71352785 19.3414634,0.123784262 14.9512195,0.123784262 C10.5609756,0.123784262 7,3.7382847 7,8.16976127 C7,12.6012378 10.5609756,16.2404951 14.9512195,16.2404951 L14.9512195,16.2404951 Z M14.9512195,2.22811671 C18.1707317,2.22811671 20.804878,4.90185676 20.804878,8.16976127 C20.804878,11.4376658 18.1707317,14.1114058 14.9512195,14.1114058 C11.7317073,14.1114058 9.09756098,11.4376658 9.09756098,8.16976127 C9.09756098,4.90185676 11.7317073,2.22811671 14.9512195,2.22811671 Z"></path>
                        <path d="M1.19512195,28.841733 L28.804878,28.841733 C29.3902439,28.841733 29.8536585,28.3713528 29.8536585,27.7771883 C29.8536585,22.2068966 25.3902439,17.6516357 19.8780488,17.6516357 L10.1219512,17.6516357 C4.63414634,17.6516357 0.146341463,22.1821397 0.146341463,27.7771883 C0.146341463,28.3713528 0.609756098,28.841733 1.19512195,28.841733 L1.19512195,28.841733 Z M10.1219512,19.780725 L19.8780488,19.780725 C23.8780488,19.780725 27.1707317,22.801061 27.6829268,26.7126437 L2.31707317,26.7126437 C2.82926829,22.8258179 6.12195122,19.780725 10.1219512,19.780725 Z"></path>
                    </g>
                </g>
            </g>
        </g>
    </g>
</svg>