<?xml version="1.0" encoding="UTF-8"?>
<svg width="35px" height="27px" viewBox="0 0 35 27" version="1.1" xmlns="http://www.w3.org/2000/svg" xmlns:xlink="http://www.w3.org/1999/xlink">
    <!-- Generator: Sketch 41 (35326) - http://www.bohemiancoding.com/sketch -->
    <title>publicaciones-active</title>
    <desc>Created with Sketch.</desc>
    <defs></defs>
    <g id="Symbols" stroke="none" stroke-width="1" fill="none" fill-rule="evenodd">
        <g id="publicaciones-copy" fill="#FFFFFF">
            <g id="publicaciones-active" transform="translate(0.500000, 0.338710)">
                <path d="M24.1038042,17.3224341 C22.6928042,17.3224341 21.5445958,16.1849476 21.5445958,14.7866921 C21.5445958,13.3880857 22.6928042,12.2505992 24.1038042,12.2505992 C25.5148042,12.2505992 26.6630125,13.3880857 26.6630125,14.7866921 C26.6630125,16.1849476 25.5148042,17.3224341 24.1038042,17.3224341 M9.76749167,17.3224341 C8.35649167,17.3224341 7.2086375,16.1849476 7.2086375,14.7866921 C7.2086375,13.3880857 8.35649167,12.2505992 9.76749167,12.2505992 C11.1788458,12.2505992 12.3267,13.3880857 12.3267,14.7866921 C12.3267,16.1849476 11.1788458,17.3224341 9.76749167,17.3224341 M29.0798458,14.298847 L28.0803875,14.298847 C27.8363667,12.3372883 26.1480542,10.8126844 24.1038042,10.8126844 C22.1459708,10.8126844 20.514325,12.2109399 20.1651167,14.0521166 C19.4280958,13.7681837 18.3475333,13.493025 16.935825,13.493025 C15.5241167,13.493025 14.4432,13.7681837 13.7061792,14.0521166 C13.357325,12.2109399 11.725325,10.8126844 9.76749167,10.8126844 C7.72324167,10.8126844 6.034575,12.3376392 5.79090833,14.2991979 C5.7891375,14.2991979 5.78772083,14.298847 5.78595,14.298847 L4.78259583,14.298847 C4.39124167,14.298847 4.0742625,14.6129631 4.0742625,15.0007825 C4.0742625,15.3882508 4.39124167,15.7027179 4.78259583,15.7027179 L5.78595,15.7027179 C5.81392917,15.7027179 5.8401375,15.6978044 5.86740833,15.6946457 C6.28355417,17.4487825 7.87234583,18.7603489 9.76749167,18.7603489 C11.6969917,18.7603489 13.3116375,17.4031566 13.6920125,15.6016392 C14.0426375,15.4093089 15.1242625,14.9309399 16.935825,14.9309399 C18.7279083,14.9309399 19.8272417,15.419136 20.1807,15.6069037 C20.5632,17.4056134 22.1764292,18.7603489 24.1038042,18.7603489 C25.99895,18.7603489 27.5873875,17.4494844 28.0038875,15.6953476 C28.0279708,15.6978044 28.0513458,15.7027179 28.0764917,15.7027179 L29.0798458,15.7027179 C29.4708458,15.7027179 29.7881792,15.3882508 29.7881792,15.0007825 C29.7881792,14.6129631 29.4708458,14.298847 29.0798458,14.298847" id="Fill-1"></path>
                <path d="M27.8191896,20.4956036 L27.0740229,20.6138797 L27.0740229,23.2433301 C27.0740229,23.9614101 26.5969604,24.5029533 25.9640646,24.5029533 C25.3315229,24.5029533 24.8541063,23.9614101 24.8541063,23.2433301 L24.8541063,20.5089404 L9.00691875,20.5089404 L9.00691875,23.2433301 C9.00691875,23.9143804 8.40377292,24.5029533 7.71562708,24.5029533 C7.02783542,24.5029533 6.42433542,23.9143804 6.42433542,23.2433301 L6.42433542,20.6233559 L5.71954375,20.4777043 C4.24479375,20.1737662 1.77093958,19.1015597 1.77093958,15.3416423 C1.77093958,12.3847391 2.94960625,11.3132346 5.27152292,10.2687546 C6.67437708,9.63806555 7.04908542,8.16856361 7.54491875,5.82304619 C8.14735625,2.97143329 9.38587708,1.7549791 11.6861896,1.7549791 L22.1599604,1.7549791 C24.9139604,1.7549791 25.8684396,3.91904619 26.1840021,5.73425135 C26.2371271,6.03854039 26.2821063,6.32528103 26.3238979,6.59306942 C26.5661479,8.14048619 26.7754604,9.47662039 28.1159813,9.9693791 C30.0376896,10.6765791 32.0915021,12.4268552 32.0915021,15.2188036 C32.0915021,17.8398307 30.2547938,20.1084862 27.8191896,20.4956036 M28.7322312,8.32439329 L28.7322312,8.32439329 C28.3993146,8.20190555 28.2813771,7.64983329 28.0738354,6.32422813 C28.0302729,6.04696361 27.9838771,5.75074684 27.9293354,5.43627974 C27.3286687,1.98135329 25.2256271,0.000140387097 22.1599604,0.000140387097 L11.6861896,0.000140387097 C8.55393958,0.000140387097 6.57733542,1.83815845 5.81162708,5.46330426 C5.37777292,7.51716748 5.10506458,8.41669781 4.53981458,8.67114942 C1.73693958,9.93147458 0.00010625,11.4873146 0.00010625,15.3416423 C0.00010625,18.6818023 1.72454375,21.1283985 4.65350208,22.0170488 L4.65350208,23.2433301 C4.65350208,24.8774359 6.05600208,26.257792 7.71562708,26.257792 C9.37560625,26.257792 10.7777521,24.8774359 10.7777521,23.2433301 L10.7777521,22.2637791 L23.0832729,22.2637791 L23.0832729,23.2433301 C23.0832729,24.9339417 24.3487104,26.257792 25.9640646,26.257792 C27.5794187,26.257792 28.8448562,24.9339417 28.8448562,23.2433301 L28.8448562,22.0637275 C31.7522104,21.2382514 33.8619812,18.4248939 33.8619812,15.2188036 C33.8619812,12.1769662 31.8485437,9.47065394 28.7322312,8.32439329" id="Fill-3"></path>
            </g>
        </g>
    </g>
</svg>