<?xml version="1.0" encoding="UTF-8"?>
<svg width="18px" height="18px" viewBox="0 0 18 18" version="1.1" xmlns="http://www.w3.org/2000/svg" xmlns:xlink="http://www.w3.org/1999/xlink">
    <!-- Generator: Sketch 41 (35326) - http://www.bohemiancoding.com/sketch -->
    <title>sun</title>
    <desc>Created with Sketch.</desc>
    <defs></defs>
    <g id="Diseños-finales" stroke="none" stroke-width="1" fill="none" fill-rule="evenodd">
        <g id="02-Perfil" transform="translate(-353.000000, -1032.000000)" fill="#000000">
            <g id="exterior" transform="translate(353.000000, 1029.000000)">
                <g id="sun" transform="translate(0.000000, 3.000000)">
                    <g id="Group">
                        <path d="M9,13.3230769 C11.3846154,13.3230769 13.3076923,11.3846154 13.3076923,9.01538462 C13.3076923,6.64615385 11.3692308,4.70769231 9,4.70769231 C6.63076923,4.70769231 4.69230769,6.64615385 4.69230769,9.01538462 C4.69230769,11.3846154 6.61538462,13.3230769 9,13.3230769 L9,13.3230769 Z M9,5.95384615 C10.6923077,5.95384615 12.0615385,7.32307692 12.0615385,9.01538462 C12.0615385,10.7076923 10.6923077,12.0769231 9,12.0769231 C7.30769231,12.0769231 5.93846154,10.7076923 5.93846154,9.01538462 C5.93846154,7.32307692 7.30769231,5.95384615 9,5.95384615 L9,5.95384615 Z" id="Shape"></path>
                        <path d="M9.63076923,2.70769231 L9.63076923,0.723076923 C9.63076923,0.369230769 9.35384615,0.0923076923 9,0.0923076923 C8.64615385,0.0923076923 8.36923077,0.369230769 8.36923077,0.723076923 L8.36923077,2.70769231 C8.36923077,3.06153846 8.64615385,3.33846154 9,3.33846154 C9.35384615,3.33846154 9.63076923,3.06153846 9.63076923,2.70769231 L9.63076923,2.70769231 Z" id="Shape"></path>
                        <path d="M8.36923077,15.3230769 L8.36923077,17.3076923 C8.36923077,17.6615385 8.64615385,17.9384615 9,17.9384615 C9.35384615,17.9384615 9.63076923,17.6615385 9.63076923,17.3076923 L9.63076923,15.3230769 C9.63076923,14.9692308 9.35384615,14.6923077 9,14.6923077 C8.64615385,14.6923077 8.36923077,14.9692308 8.36923077,15.3230769 L8.36923077,15.3230769 Z" id="Shape"></path>
                        <path d="M13.9076923,5 L15.3076923,3.6 C15.5538462,3.35384615 15.5538462,2.95384615 15.3076923,2.70769231 C15.0615385,2.46153846 14.6615385,2.46153846 14.4153846,2.70769231 L13.0153846,4.10769231 C12.7692308,4.35384615 12.7692308,4.75384615 13.0153846,5 C13.1384615,5.12307692 13.2923077,5.18461538 13.4615385,5.18461538 C13.6307692,5.18461538 13.7846154,5.12307692 13.9076923,5 L13.9076923,5 Z" id="Shape"></path>
                        <path d="M2.69230769,15.3230769 C2.81538462,15.4461538 2.96923077,15.5076923 3.13846154,15.5076923 C3.29230769,15.5076923 3.46153846,15.4461538 3.58461538,15.3230769 L4.98461538,13.9230769 C5.23076923,13.6769231 5.23076923,13.2769231 4.98461538,13.0307692 C4.73846154,12.7846154 4.33846154,12.7846154 4.09230769,13.0307692 L2.69230769,14.4307692 C2.44615385,14.6769231 2.44615385,15.0769231 2.69230769,15.3230769 L2.69230769,15.3230769 Z" id="Shape"></path>
                        <path d="M17.9230769,9.01538462 C17.9230769,8.66153846 17.6461538,8.38461538 17.2923077,8.38461538 L15.3076923,8.38461538 C14.9538462,8.38461538 14.6769231,8.66153846 14.6769231,9.01538462 C14.6769231,9.36923077 14.9538462,9.64615385 15.3076923,9.64615385 L17.2923077,9.64615385 C17.6307692,9.64615385 17.9230769,9.36923077 17.9230769,9.01538462 L17.9230769,9.01538462 Z" id="Shape"></path>
                        <path d="M0.707692308,9.64615385 L2.69230769,9.64615385 C3.04615385,9.64615385 3.32307692,9.36923077 3.32307692,9.01538462 C3.32307692,8.66153846 3.04615385,8.38461538 2.69230769,8.38461538 L0.707692308,8.38461538 C0.353846154,8.38461538 0.0769230769,8.66153846 0.0769230769,9.01538462 C0.0769230769,9.36923077 0.369230769,9.64615385 0.707692308,9.64615385 L0.707692308,9.64615385 Z" id="Shape"></path>
                        <path d="M14.8615385,15.5076923 C15.0153846,15.5076923 15.1846154,15.4461538 15.3076923,15.3230769 C15.5538462,15.0769231 15.5538462,14.6769231 15.3076923,14.4307692 L13.9076923,13.0307692 C13.6615385,12.7846154 13.2615385,12.7846154 13.0153846,13.0307692 C12.7692308,13.2769231 12.7692308,13.6769231 13.0153846,13.9230769 L14.4153846,15.3230769 C14.5384615,15.4461538 14.7076923,15.5076923 14.8615385,15.5076923 L14.8615385,15.5076923 Z" id="Shape"></path>
                        <path d="M4.98461538,5 C5.23076923,4.75384615 5.23076923,4.35384615 4.98461538,4.10769231 L3.58461538,2.70769231 C3.33846154,2.46153846 2.93846154,2.46153846 2.69230769,2.70769231 C2.44615385,2.95384615 2.44615385,3.35384615 2.69230769,3.6 L4.09230769,5 C4.21538462,5.12307692 4.36923077,5.18461538 4.53846154,5.18461538 C4.70769231,5.18461538 4.86153846,5.12307692 4.98461538,5 L4.98461538,5 Z" id="Shape"></path>
                    </g>
                </g>
            </g>
        </g>
    </g>
</svg>