<?xml version="1.0" encoding="UTF-8"?>
<svg width="12px" height="18px" viewBox="0 0 12 18" version="1.1" xmlns="http://www.w3.org/2000/svg" xmlns:xlink="http://www.w3.org/1999/xlink">
    <!-- Generator: Sketch 41 (35326) - http://www.bohemiancoding.com/sketch -->
    <title>unlock</title>
    <desc>Created with Sketch.</desc>
    <defs></defs>
    <g id="Diseños-finales" stroke="none" stroke-width="1" fill="none" fill-rule="evenodd">
        <g id="04-Registo" transform="translate(-46.000000, -427.000000)" fill="#EF4039">
            <g id="contraseña" transform="translate(31.000000, 400.000000)">
                <g id="unlock" transform="translate(15.000000, 27.500000)">
                    <g id="Group">
                        <path d="M5.89756098,1.24957265 C8.50243902,1.24957265 10.6097561,3.34188034 10.6097561,5.92820513 C10.6097561,6.26239316 10.8731707,6.52393162 11.2097561,6.52393162 C11.5463415,6.52393162 11.8097561,6.26239316 11.8097561,5.92820513 C11.8097561,2.68803419 9.16097561,0.0581196581 5.89756098,0.0581196581 C2.63414634,0.0581196581 0,2.7025641 0,5.92820513 L0,9.69145299 L0,16.3461538 C0,16.6803419 0.263414634,16.9418803 0.6,16.9418803 L11.3560976,16.9418803 C11.6926829,16.9418803 11.9560976,16.6803419 11.9560976,16.3461538 L11.9560976,9.69145299 C11.9560976,9.35726496 11.6926829,9.0957265 11.3560976,9.0957265 L1.18536585,9.0957265 L1.18536585,5.92820513 C1.18536585,3.35641026 3.30731707,1.24957265 5.89756098,1.24957265 Z M10.7560976,10.2871795 L10.7560976,15.7504274 L1.18536585,15.7504274 L1.18536585,10.2871795 L10.7560976,10.2871795 Z" id="Shape"></path>
                        <ellipse id="Oval" cx="5.98536585" cy="13.0188034" rx="0.965853659" ry="0.958974359"></ellipse>
                    </g>
                </g>
            </g>
        </g>
    </g>
</svg>