<?xml version="1.0" encoding="UTF-8"?>
<svg width="23px" height="18px" viewBox="0 0 23 18" version="1.1" xmlns="http://www.w3.org/2000/svg" xmlns:xlink="http://www.w3.org/1999/xlink">
    <!-- Generator: Sketch 41 (35326) - http://www.bohemiancoding.com/sketch -->
    <title>used-toggle-active</title>
    <desc>Created with Sketch.</desc>
    <defs></defs>
    <g id="Symbols" stroke="none" stroke-width="1" fill="none" fill-rule="evenodd">
        <g id="toggle-active-used" transform="translate(-115.000000, -11.000000)" fill="#FFFFFF">
            <g id="toggle">
                <g id="Group-2" transform="translate(115.000000, 11.000000)">
                    <path d="M18.8370423,14.0499365 L18.3324701,14.1310165 L18.3324701,15.9335427 C18.3324701,16.425797 18.0094384,16.7970327 17.5808877,16.7970327 C17.1525769,16.7970327 16.8293054,16.425797 16.8293054,15.9335427 L16.8293054,14.0590791 L6.09875264,14.0590791 L6.09875264,15.9335427 C6.09875264,16.3935574 5.69034653,16.7970327 5.22438466,16.7970327 C4.7586626,16.7970327 4.35001668,16.3935574 4.35001668,15.9335427 L4.35001668,14.1375125 L3.87278347,14.0376662 C2.87419096,13.8293123 1.19907842,13.0942993 1.19907842,10.5168215 C1.19907842,8.48982156 1.99718501,7.75528971 3.56941663,7.03928357 C4.51932655,6.60693711 4.77305154,5.59957228 5.1087935,3.99168616 C5.51671998,2.03686427 6.35535542,1.20296732 7.91295829,1.20296732 L15.0050275,1.20296732 C16.8698342,1.20296732 17.5161375,2.68646662 17.7298133,3.93081601 C17.7657856,4.13941055 17.7962422,4.33597541 17.8245405,4.51954822 C17.9885744,5.5803248 18.1303055,6.49626412 19.0380078,6.83405734 C20.3392477,7.31885317 21.7299389,8.51869278 21.7299389,10.4326138 C21.7299389,12.2293658 20.4862547,13.7845619 18.8370423,14.0499365 M19.4552871,5.70639578 L19.4552871,5.70639578 C19.2298604,5.62242866 19.1500018,5.24397514 19.0094698,4.33525363 C18.9799724,4.14518479 18.9485566,3.94212391 18.911625,3.72655216 C18.5048976,1.3581501 17.080872,0 15.0050275,0 L7.91295829,0 C5.79202838,0 4.45361705,1.25998797 3.93513555,3.74507786 C3.64136133,5.15303081 3.45670326,5.76967186 3.07395743,5.94410212 C1.17605611,6.80807325 0,7.87462407 0,10.5168215 C0,12.8065495 1.16766256,14.4837265 3.15093826,15.0929092 L3.15093826,15.9335427 C3.15093826,17.0537459 4.10060837,18 5.22438466,18 C6.34840077,18 7.29783106,17.0537459 7.29783106,15.9335427 L7.29783106,15.2620464 L15.630227,15.2620464 L15.630227,15.9335427 C15.630227,17.0924815 16.4870884,18 17.5808877,18 C18.6746871,18 19.5315485,17.0924815 19.5315485,15.9335427 L19.5315485,15.1249081 C21.5001955,14.5590323 22.9287775,12.6304351 22.9287775,10.4326138 C22.9287775,8.34739023 21.5654253,6.49217403 19.4552871,5.70639578" id="used-toggle-active"></path>
                </g>
            </g>
        </g>
    </g>
</svg>