<?xml version="1.0" encoding="UTF-8"?>
<svg width="19px" height="10px" viewBox="0 0 19 10" version="1.1" xmlns="http://www.w3.org/2000/svg" xmlns:xlink="http://www.w3.org/1999/xlink">
    <!-- Generator: Sketch 41 (35326) - http://www.bohemiancoding.com/sketch -->
    <title>visible</title>
    <desc>Created with Sketch.</desc>
    <defs></defs>
    <g id="Diseños-finales" stroke="none" stroke-width="1" fill="none" fill-rule="evenodd">
        <g id="02-Perfil" transform="translate(-37.000000, -884.000000)" fill="#000000">
            <g id="detalles" transform="translate(37.000000, 882.000000)">
                <g id="visible" transform="translate(0.000000, 2.000000)">
                    <g id="Group">
                        <path d="M9.53247863,0.0476190476 C4.92051282,0.0476190476 0.454700855,4.34920635 0.276068376,4.53968254 C0.146153846,4.66666667 0.0811965812,4.82539683 0.0811965812,5 C0.0811965812,5.17460317 0.146153846,5.33333333 0.276068376,5.46031746 C0.470940171,5.65079365 4.92051282,9.95238095 9.53247863,9.95238095 C14.1444444,9.95238095 18.6102564,5.65079365 18.7888889,5.46031746 C18.9188034,5.33333333 18.9837607,5.17460317 18.9837607,5 C18.9837607,4.82539683 18.9188034,4.66666667 18.7888889,4.53968254 C18.6102564,4.34920635 14.1606838,0.0476190476 9.53247863,0.0476190476 L9.53247863,0.0476190476 Z M9.53247863,8.63492063 C6.3008547,8.63492063 2.97179487,6.06349206 1.72136752,4.98412698 C2.97179487,3.9047619 6.3008547,1.33333333 9.53247863,1.33333333 C12.7641026,1.33333333 16.0931624,3.9047619 17.3435897,4.98412698 C16.0931624,6.06349206 12.7641026,8.63492063 9.53247863,8.63492063 L9.53247863,8.63492063 Z" id="Shape"></path>
                        <path d="M7.14529915,4.98412698 C7.14529915,6.26984127 8.21709402,7.33333333 9.54871795,7.33333333 C10.8803419,7.33333333 11.9521368,6.28571429 11.9521368,4.98412698 C11.9521368,3.68253968 10.8803419,2.63492063 9.54871795,2.63492063 C8.21709402,2.63492063 7.14529915,3.6984127 7.14529915,4.98412698 L7.14529915,4.98412698 Z M10.6042735,4.98412698 C10.6042735,5.55555556 10.1333333,6.03174603 9.53247863,6.03174603 C8.94786325,6.03174603 8.46068376,5.57142857 8.46068376,4.98412698 C8.46068376,4.3968254 8.93162393,3.93650794 9.53247863,3.93650794 C10.117094,3.95238095 10.6042735,4.41269841 10.6042735,4.98412698 L10.6042735,4.98412698 Z" id="Shape"></path>
                    </g>
                </g>
            </g>
        </g>
    </g>
</svg>