<?xml version="1.0" encoding="UTF-8"?>
<svg width="16px" height="16px" viewBox="0 0 16 16" version="1.1" xmlns="http://www.w3.org/2000/svg" xmlns:xlink="http://www.w3.org/1999/xlink">
    <!-- Generator: Sketch 41 (35326) - http://www.bohemiancoding.com/sketch -->
    <title>volume</title>
    <desc>Created with Sketch.</desc>
    <defs></defs>
    <g id="Diseños-finales" stroke="none" stroke-width="1" fill="none" fill-rule="evenodd">
        <g id="02-Perfil" transform="translate(-42.000000, -1029.000000)" fill="#000000">
            <g id="sonido" transform="translate(42.000000, 1029.000000)">
                <g id="volume">
                    <g id="Group">
                        <path d="M0.615384615,12.2529915 L4.30769231,12.2529915 C4.62222222,12.2529915 4.86837607,12.0068376 4.86837607,11.6923077 L4.86837607,11.5008547 L11.3777778,15.8358974 C11.4735043,15.9042735 11.582906,15.9316239 11.6923077,15.9316239 C11.7880342,15.9316239 11.8700855,15.9042735 11.9521368,15.8632479 C12.1299145,15.7675214 12.2529915,15.5760684 12.2529915,15.3709402 L12.2529915,0.615384615 C12.2529915,0.41025641 12.1435897,0.218803419 11.9521368,0.123076923 C11.774359,0.0273504274 11.5555556,0.041025641 11.3777778,0.15042735 L4.86837607,4.4991453 L4.86837607,4.30769231 C4.86837607,3.99316239 4.62222222,3.74700855 4.30769231,3.74700855 L0.615384615,3.74700855 C0.300854701,3.74700855 0.0547008547,3.99316239 0.0547008547,4.30769231 L0.0547008547,11.6923077 C0.0547008547,11.9931624 0.314529915,12.2529915 0.615384615,12.2529915 L0.615384615,12.2529915 Z M4.86837607,5.83931624 L11.1316239,1.66837607 L11.1316239,14.3452991 L4.86837607,10.1606838 L4.86837607,5.83931624 L4.86837607,5.83931624 Z M1.17606838,4.86837607 L3.74700855,4.86837607 L3.74700855,5.53846154 L3.74700855,10.4615385 L3.74700855,11.1316239 L1.17606838,11.1316239 L1.17606838,4.86837607 L1.17606838,4.86837607 Z" id="Shape"></path>
                        <path d="M15.3846154,3.74700855 C15.0700855,3.74700855 14.8239316,3.99316239 14.8239316,4.30769231 L14.8239316,11.6923077 C14.8239316,12.0068376 15.0700855,12.2529915 15.3846154,12.2529915 C15.6991453,12.2529915 15.9452991,12.0068376 15.9452991,11.6923077 L15.9452991,4.30769231 C15.9452991,4.00683761 15.6854701,3.74700855 15.3846154,3.74700855 L15.3846154,3.74700855 Z" id="Shape"></path>
                    </g>
                </g>
            </g>
        </g>
    </g>
</svg>