<?xml version="1.0" encoding="UTF-8"?>
<svg width="213px" height="54px" viewBox="0 0 213 54" version="1.1" xmlns="http://www.w3.org/2000/svg" xmlns:xlink="http://www.w3.org/1999/xlink">
    <!-- Generator: Sketch 41 (35326) - http://www.bohemiancoding.com/sketch -->
    <title>logo-panoram</title>
    <desc>Created with Sketch.</desc>
    <defs>
        <polygon id="path-1" points="10.552 17.8444 10.552 0.4584 0.0321 0.4584 0.0321 17.8444 10.552 17.8444"></polygon>
        <polygon id="path-3" points="0.000230769231 53.378081 69.7007692 53.378081 69.7007692 0.140689371 0.000230769231 0.140689371 0.000230769231 53.378081"></polygon>
    </defs>
    <g id="Symbols" stroke="none" stroke-width="1" fill="none" fill-rule="evenodd">
        <g id="Logo" transform="translate(-3.000000, -1.000000)">
            <g id="logo-panoram" transform="translate(3.000000, 1.000000)">
                <g id="Logo" transform="translate(81.000000, 18.000000)">
                    <g id="Page-1">
                        <polygon id="Fill-1" fill="#000000" points="11.3454 1.8026 7.6004 13.1256 7.5564 13.1256 3.5214 1.8026 0.0004 1.8026 6.4194 19.0546 8.3364 19.0546 14.8674 1.8026"></polygon>
                        <polygon id="Fill-2" fill="#000000" points="16.2045 1.8026 16.2045 18.6096 24.8975 18.6096 24.8975 15.7566 19.4815 15.7566 19.4815 11.2086 24.6965 11.2086 24.6965 8.3556 19.4815 8.3556 19.4815 4.6556 24.8975 4.6556 24.8975 1.8026"></polygon>
                        <g id="Group-18" transform="translate(27.000000, 0.054700)">
                            <path d="M3.8041,9.4823 L4.2281,9.4823 C6.0331,9.4823 7.3031,8.9473 7.3031,6.8963 C7.3031,4.8233 5.9881,4.4223 4.2501,4.4223 L3.8041,4.4223 L3.8041,9.4823 Z M11.8951,18.5543 L7.9281,18.5543 L3.8491,11.7783 L3.8041,11.7783 L3.8041,18.5543 L0.5271,18.5543 L0.5271,1.7473 L4.9631,1.7473 C8.2841,1.7473 10.5801,3.2183 10.5801,6.8073 C10.5801,8.9473 9.3991,11.0873 7.1471,11.4663 L11.8951,18.5543 Z" id="Fill-3" fill="#000000"></path>
                            <path d="M19.0279,11.7559 C19.0279,13.0039 18.9829,14.4309 19.7639,15.5009 C20.4989,16.5259 21.9259,17.1049 23.1519,17.1049 C24.3549,17.1049 25.6699,16.5479 26.4499,15.6119 C27.3419,14.5419 27.2749,13.0709 27.2749,11.7559 L27.2749,1.7479 L29.1469,1.7479 L29.1469,12.2689 C29.1469,14.0959 29.0139,15.5449 27.6759,16.9269 C26.5169,18.1749 24.8459,18.8439 23.1519,18.8439 C21.5689,18.8439 19.9419,18.2419 18.8049,17.1279 C17.3339,15.7239 17.1559,14.1859 17.1559,12.2689 L17.1559,1.7479 L19.0279,1.7479 L19.0279,11.7559 Z" id="Fill-5" fill="#000000"></path>
                            <path d="M40.0912,5.0244 C39.4222,3.8654 38.6202,3.1964 37.1942,3.1964 C35.7002,3.1964 34.4072,4.2664 34.4072,5.8044 C34.4072,7.2534 35.9012,7.9224 37.0382,8.4344 L38.1522,8.9254 C40.3362,9.8834 42.1862,10.9754 42.1862,13.6504 C42.1862,16.5924 39.8242,18.8444 36.9042,18.8444 C34.2072,18.8444 32.2012,17.1054 31.6662,14.4974 L33.4932,13.9844 C33.7382,15.7014 35.0542,17.1054 36.8592,17.1054 C38.6642,17.1054 40.3142,15.7234 40.3142,13.8284 C40.3142,11.8674 38.7762,11.1984 37.2162,10.4854 L36.1912,10.0394 C34.2292,9.1484 32.5352,8.1454 32.5352,5.7374 C32.5352,3.1294 34.7422,1.4584 37.2382,1.4584 C39.1102,1.4584 40.6932,2.4164 41.5852,4.0664 L40.0912,5.0244 Z" id="Fill-7" fill="#000000"></path>
                            <path d="M51.08,5.3142 L48.204,12.0452 L53.888,12.0452 L51.08,5.3142 Z M47.447,13.7842 L45.418,18.5542 L43.368,18.5542 L51.124,0.9452 L58.681,18.5542 L56.608,18.5542 L54.624,13.7842 L47.447,13.7842 Z" id="Fill-9" fill="#000000"></path>
                            <path d="M63.7401,16.8156 C65.7911,16.8156 67.5071,16.5256 69.0451,15.0766 C70.4271,13.7846 71.1401,12.0236 71.1401,10.1506 C71.1401,8.2336 70.4051,6.3836 68.9561,5.1136 C67.4181,3.7536 65.7241,3.4866 63.7401,3.4866 L62.3801,3.4866 L62.3801,16.8156 L63.7401,16.8156 Z M60.5081,1.7476 L63.6731,1.7476 C66.1921,1.7476 68.2421,2.0816 70.2261,3.7766 C72.1431,5.4256 73.0131,7.6766 73.0131,10.1736 C73.0131,12.6256 72.1211,14.7876 70.2711,16.4366 C68.2651,18.2196 66.2591,18.5546 63.6291,18.5546 L60.5081,18.5546 L60.5081,1.7476 Z" id="Fill-11" fill="#000000"></path>
                            <path d="M76.6455,10.151 C76.6455,13.94 79.7215,17.105 83.5335,17.105 C87.3445,17.105 90.4205,13.94 90.4205,10.151 C90.4205,6.34 87.3895,3.197 83.5335,3.197 C79.6775,3.197 76.6455,6.34 76.6455,10.151 M92.2935,10.173 C92.2935,15.01 88.3255,18.844 83.5335,18.844 C78.7405,18.844 74.7735,15.01 74.7735,10.173 C74.7735,5.359 78.7405,1.458 83.5335,1.458 C88.3255,1.458 92.2935,5.359 92.2935,10.173" id="Fill-13" fill="#000000"></path>
                            <g id="Group-17" transform="translate(94.000000, 1.000000)">
                                <mask id="mask-2" fill="white">
                                    <use xlink:href="#path-1"></use>
                                </mask>
                                <g id="Clip-16"></g>
                                <path d="M8.4571,4.0244 C7.7881,2.8654 6.9861,2.1964 5.5601,2.1964 C4.0661,2.1964 2.7731,3.2664 2.7731,4.8044 C2.7731,6.2534 4.2671,6.9224 5.4041,7.4344 L6.5181,7.9254 C8.7021,8.8834 10.5521,9.9754 10.5521,12.6504 C10.5521,15.5924 8.1901,17.8444 5.2701,17.8444 C2.5731,17.8444 0.5671,16.1054 0.0321,13.4974 L1.8591,12.9844 C2.1051,14.7014 3.4201,16.1054 5.2251,16.1054 C7.0301,16.1054 8.6801,14.7234 8.6801,12.8284 C8.6801,10.8674 7.1421,10.1984 5.5821,9.4854 L4.5571,9.0394 C2.5951,8.1484 0.9011,7.1454 0.9011,4.7374 C0.9011,2.1294 3.1081,0.4584 5.6041,0.4584 C7.4761,0.4584 9.0591,1.4164 9.9511,3.0664 L8.4571,4.0244 Z" id="Fill-15" fill="#000000" mask="url(#mask-2)"></path>
                            </g>
                        </g>
                    </g>
                </g>
                <g id="Page-1">
                    <path d="M19.2816923,25.9118556 C16.2170769,25.9118556 13.7232308,28.3832608 13.7232308,31.4219987 C13.7232308,34.459974 16.2170769,36.9313792 19.2816923,36.9313792 C22.3463077,36.9313792 24.8401538,34.459974 24.8401538,31.4219987 C24.8401538,28.3832608 22.3463077,25.9118556 19.2816923,25.9118556" id="Fill-1" fill="#EE4038"></path>
                    <path d="M50.419,25.9118556 C47.3543846,25.9118556 44.8605385,28.3832608 44.8605385,31.4219987 C44.8605385,34.459974 47.3543846,36.9313792 50.419,36.9313792 C53.4836154,36.9313792 55.9774615,34.459974 55.9774615,31.4219987 C55.9774615,28.3832608 53.4836154,25.9118556 50.419,25.9118556" id="Fill-3" fill="#EE4038"></path>
                    <g id="Group-7" transform="translate(0.000000, 0.621931)">
                        <mask id="mask-4" fill="white">
                            <use xlink:href="#path-3"></use>
                        </mask>
                        <g id="Clip-6"></g>
                        <path d="M61.2263846,32.7905364 L59.0471538,32.7905364 C58.9933077,32.7905364 58.9425385,32.7798608 58.8894615,32.774523 C57.9856154,36.585718 54.5348462,39.4338199 50.4186923,39.4338199 C46.2325385,39.4338199 42.7294615,36.4904 41.8979231,32.5823619 C41.131,32.1744009 38.7425385,31.1137021 34.8502308,31.1137021 C30.9156154,31.1137021 28.5671538,32.1530496 27.8056154,32.5709237 C26.9786923,36.4850622 23.4717692,39.4338199 19.2817692,39.4338199 C15.1648462,39.4338199 11.7140769,36.5841929 10.8102308,32.7729979 C10.7517692,32.7798608 10.6940769,32.7905364 10.6333077,32.7905364 L8.45407692,32.7905364 C7.60484615,32.7905364 6.91561538,32.107297 6.91561538,31.2654484 C6.91561538,30.4235998 7.60484615,29.7403604 8.45407692,29.7403604 L10.6333077,29.7403604 C10.6371538,29.7403604 10.641,29.7411229 10.6448462,29.7411229 C11.1733077,25.4792644 14.8417692,22.1660107 19.2817692,22.1660107 C23.5340769,22.1660107 27.0779231,25.2047486 27.8356154,29.2042919 C29.4371538,28.5873938 31.7840769,27.9895593 34.8502308,27.9895593 C37.9163846,27.9895593 40.2633077,28.5873938 41.8648462,29.2042919 C42.6225385,25.203986 46.1671538,22.1660107 50.4186923,22.1660107 C54.8586923,22.1660107 58.5263846,25.4785019 59.0556154,29.7403604 L61.2263846,29.7403604 C62.0756154,29.7403604 62.7648462,30.4235998 62.7648462,31.2654484 C62.7648462,32.107297 62.0756154,32.7905364 61.2263846,32.7905364 M59.8125385,18.1077514 C57.611,17.2979297 57.5817692,14.6198751 56.8425385,10.3694548 C55.7594615,4.13794509 52.1356154,0.140689371 46.2071538,0.140689371 L23.4586923,0.140689371 C17.4571538,0.140689371 14.0463846,3.55841164 12.5817692,10.4952745 C11.5348462,15.4510481 10.8433077,17.8599246 8.73176923,18.8100545 C3.55638462,21.1381013 0.000230769231,23.842845 0.000230769231,31.5674158 C0.000230769231,39.2919867 4.43407692,43.4219251 10.1071538,44.5924301 L10.1071538,48.7353318 C10.1071538,51.2890917 12.3425385,53.3784623 14.8348462,53.3784623 C17.3279231,53.3784623 19.5633077,51.2890917 19.5633077,48.7353318 L19.5633077,44.6999488 L50.1356154,44.6999488 L50.1356154,48.7353318 C50.1356154,51.2890917 51.9771538,53.3784623 54.4694615,53.3784623 C56.9625385,53.3784623 58.8033077,51.2890917 58.8033077,48.7353318 L58.8033077,44.6473333 C65.2648462,43.619424 69.701,37.6235404 69.701,31.2997629 C69.701,24.9767479 65.3494615,20.145269 59.8125385,18.1077514" id="Fill-5" fill="#EE4038" mask="url(#mask-4)"></path>
                    </g>
                </g>
            </g>
        </g>
    </g>
</svg>